<svg version="1.1" xmlns="http://www.w3.org/2000/svg" xmlns:xlink="http://www.w3.org/1999/xlink" width="800px" height="800px" viewBox="0,0,256,256"><g fill="#ffffff" fill-rule="nonzero" stroke="none" stroke-width="1" stroke-linecap="butt" stroke-linejoin="miter" stroke-miterlimit="10" stroke-dasharray="" stroke-dashoffset="0" font-family="none" font-weight="none" font-size="none" text-anchor="none" style="mix-blend-mode: normal"><path d="M0,256v-256h256v256z" id="bgRectangle"></path></g><g fill="#37c3bf" fill-rule="nonzero" stroke="none" stroke-width="1" stroke-linecap="butt" stroke-linejoin="miter" stroke-miterlimit="10" stroke-dasharray="" stroke-dashoffset="0" font-family="none" font-weight="none" font-size="none" text-anchor="none" style="mix-blend-mode: normal"><g transform="scale(0.5,0.5)"><g id="c2be471c56fc5b4dd571614bb30525c6"><path d="M256.002,0.5c-141.113,0 -255.502,114.391 -255.502,255.502c0,141.113 114.389,255.498 255.502,255.498c141.109,0 255.498,-114.385 255.498,-255.498c0,-141.111 -114.389,-255.502 -255.498,-255.502zM256.002,469.541c-117.747,0 -213.538,-95.795 -213.538,-213.539c0,-117.742 95.792,-213.538 213.538,-213.538c117.744,0 213.535,95.796 213.535,213.538c0,117.744 -95.791,213.539 -213.535,213.539zM413.859,206.098c-0.027,-0.199 -0.078,-0.39 -0.111,-0.589c-0.066,-0.384 -0.137,-0.767 -0.236,-1.14c-0.059,-0.225 -0.143,-0.44 -0.213,-0.656c-0.107,-0.333 -0.217,-0.665 -0.348,-0.989c-0.094,-0.224 -0.201,-0.448 -0.305,-0.664c-0.143,-0.309 -0.291,-0.607 -0.461,-0.897c-0.125,-0.217 -0.258,-0.425 -0.387,-0.632c-0.182,-0.283 -0.369,-0.558 -0.574,-0.823c-0.148,-0.2 -0.307,-0.398 -0.465,-0.591c-0.215,-0.248 -0.439,-0.498 -0.678,-0.73c-0.178,-0.183 -0.354,-0.365 -0.539,-0.532c-0.25,-0.224 -0.508,-0.441 -0.77,-0.647c-0.203,-0.158 -0.402,-0.316 -0.615,-0.466c-0.078,-0.05 -0.148,-0.116 -0.223,-0.167l-144.404,-96.269c-4.563,-3.041 -10.501,-3.041 -15.063,0l-144.403,96.269c-0.075,0.051 -0.146,0.117 -0.224,0.167c-0.213,0.149 -0.412,0.308 -0.611,0.466c-0.266,0.206 -0.524,0.424 -0.768,0.647c-0.192,0.167 -0.366,0.35 -0.544,0.532c-0.237,0.232 -0.46,0.482 -0.673,0.73c-0.162,0.192 -0.32,0.391 -0.469,0.591c-0.199,0.266 -0.392,0.54 -0.57,0.823c-0.137,0.207 -0.265,0.415 -0.39,0.632c-0.167,0.29 -0.316,0.589 -0.462,0.897c-0.104,0.216 -0.211,0.44 -0.303,0.664c-0.133,0.324 -0.241,0.656 -0.35,0.989c-0.071,0.216 -0.149,0.432 -0.211,0.656c-0.101,0.373 -0.167,0.756 -0.238,1.14c-0.032,0.199 -0.083,0.39 -0.107,0.589c-0.08,0.582 -0.125,1.172 -0.125,1.771v96.269c0,0.598 0.045,1.188 0.125,1.779c0.025,0.191 0.075,0.39 0.107,0.58c0.071,0.384 0.137,0.766 0.238,1.14c0.063,0.225 0.141,0.44 0.211,0.656c0.109,0.332 0.217,0.665 0.35,0.997c0.092,0.226 0.199,0.441 0.303,0.657c0.146,0.307 0.295,0.605 0.462,0.905c0.125,0.209 0.252,0.415 0.39,0.623c0.179,0.283 0.371,0.558 0.57,0.824c0.149,0.207 0.307,0.397 0.469,0.589c0.213,0.249 0.437,0.499 0.673,0.732c0.179,0.182 0.353,0.364 0.544,0.529c0.244,0.227 0.502,0.442 0.768,0.65c0.199,0.158 0.398,0.315 0.611,0.465c0.078,0.05 0.149,0.116 0.224,0.166l144.403,96.27c2.281,1.52 4.908,2.285 7.534,2.285c2.621,0 5.248,-0.766 7.529,-2.285l144.404,-96.27c0.074,-0.05 0.145,-0.116 0.223,-0.166c0.213,-0.149 0.412,-0.307 0.615,-0.465c0.262,-0.208 0.52,-0.424 0.77,-0.65c0.186,-0.165 0.361,-0.348 0.539,-0.529c0.238,-0.233 0.463,-0.483 0.678,-0.732c0.158,-0.191 0.316,-0.382 0.465,-0.589c0.205,-0.267 0.393,-0.541 0.574,-0.824c0.129,-0.208 0.262,-0.414 0.387,-0.623c0.17,-0.3 0.318,-0.599 0.461,-0.905c0.104,-0.216 0.211,-0.432 0.305,-0.657c0.131,-0.332 0.24,-0.665 0.348,-0.997c0.07,-0.216 0.154,-0.432 0.213,-0.656c0.1,-0.374 0.17,-0.756 0.236,-1.14c0.033,-0.19 0.084,-0.389 0.111,-0.58c0.074,-0.591 0.121,-1.182 0.121,-1.779v-96.269c0,-0.599 -0.046,-1.189 -0.121,-1.771zM269.578,136.971l106.377,70.913l-47.516,31.788l-58.861,-39.375zM242.423,136.971v63.326l-58.859,39.375l-47.52,-31.788zM125.175,233.282l33.968,22.72l-33.968,22.722zM242.423,375.034l-106.379,-70.915l47.52,-31.778l58.859,39.367zM256.002,288.122l-48.022,-32.12l48.022,-32.12l48.018,32.12zM269.578,375.034v-63.326l58.861,-39.367l47.516,31.778zM386.826,278.724l-33.965,-22.722l33.965,-22.72z"></path></g></g></g></svg>