<svg version="1.1" xmlns="http://www.w3.org/2000/svg" xmlns:xlink="http://www.w3.org/1999/xlink" width="800px" height="800px" viewBox="0,0,256,256"><g fill="#ffffff" fill-rule="nonzero" stroke="none" stroke-width="1" stroke-linecap="butt" stroke-linejoin="miter" stroke-miterlimit="10" stroke-dasharray="" stroke-dashoffset="0" font-family="none" font-weight="none" font-size="none" text-anchor="none" style="mix-blend-mode: normal"><path d="M0,256v-256h256v256z" id="bgRectangle"></path></g><g fill="#37c3bf" fill-rule="nonzero" stroke="none" stroke-width="1" stroke-linecap="butt" stroke-linejoin="miter" stroke-miterlimit="10" stroke-dasharray="" stroke-dashoffset="0" font-family="none" font-weight="none" font-size="none" text-anchor="none" style="mix-blend-mode: normal"><g transform="translate(-0.00001,0) scale(8.20224,8.20224)"><g><path d="M27.16,14.602c0.018,-0.229 0.035,-0.455 0.035,-0.687c0,-4.929 -3.996,-8.924 -8.924,-8.924c-3.599,0 -6.694,2.137 -8.104,5.206c-0.743,-0.526 -1.65,-0.84 -2.632,-0.84c-2.518,0 -4.558,2.041 -4.558,4.559c0,0.377 0.051,0.742 0.137,1.093c-1.855,1.013 -3.114,2.979 -3.114,5.242c0,3.297 2.672,5.969 5.968,5.969c3.296,0 16.853,0 19.275,0c3.296,0 5.968,-2.672 5.968,-5.969c0.002,-2.626 -1.695,-4.85 -4.051,-5.649zM26.812,19.69c-0.204,2.158 -1.705,4.468 -5.303,4.468c-2.721,0 -5.309,-2.89 -6.438,-4.493c-0.003,-0.005 -2.109,-3.257 -4.44,-3.173c-2.28,0.082 -2.881,1.281 -2.984,2.356c-0.102,1.074 0.512,2.18 1.493,2.687c1.232,0.632 2.767,0.244 4.322,-1.104l1.525,1.765c-1.502,1.3 -3.104,1.968 -4.623,1.969c-0.796,0 -1.569,-0.184 -2.293,-0.557c-1.834,-0.946 -2.938,-2.946 -2.745,-4.978c0.204,-2.16 1.706,-4.47 5.304,-4.47c3.211,0 5.467,2.922 6.202,3.942c1.217,1.693 3.34,3.725 4.676,3.725c2.282,0 2.881,-1.283 2.984,-2.357c0.102,-1.073 -0.512,-2.18 -1.493,-2.686c-1.231,-0.632 -2.766,-0.243 -4.321,1.104l-1.525,-1.764c2.291,-1.981 4.811,-2.496 6.916,-1.411c1.834,0.945 2.937,2.945 2.743,4.977z"></path></g></g></g></svg>