<svg version="1.1" xmlns="http://www.w3.org/2000/svg" xmlns:xlink="http://www.w3.org/1999/xlink" width="800px" height="800px" viewBox="0,0,256,256"><g fill="#ffffff" fill-rule="nonzero" stroke="none" stroke-width="1" stroke-linecap="butt" stroke-linejoin="miter" stroke-miterlimit="10" stroke-dasharray="" stroke-dashoffset="0" font-family="none" font-weight="none" font-size="none" text-anchor="none" style="mix-blend-mode: normal"><path d="M0,256v-256h256v256z" id="bgRectangle"></path></g><g fill="#37c3bf" fill-rule="nonzero" stroke="none" stroke-width="1" stroke-linecap="butt" stroke-linejoin="miter" stroke-miterlimit="10" stroke-dasharray="" stroke-dashoffset="0" font-family="none" font-weight="none" font-size="none" text-anchor="none" style="mix-blend-mode: normal"><g transform="scale(0.5,0.5)"><g><path d="M256.005,0c-141.394,0 -256.005,114.611 -256.005,255.996c0,141.394 114.611,256.004 256.005,256.004c141.385,0 255.995,-114.61 255.995,-256.004c0,-141.385 -114.61,-255.996 -255.995,-255.996zM187.066,203.112c0,0.366 -0.157,0.689 -0.436,0.916l-72.053,53.582l72.053,53.608c0.279,0.192 0.436,0.541 0.436,0.89v33.07c0,0.41 -0.201,0.776 -0.532,0.968c-0.148,0.079 -0.296,0.13 -0.471,0.13c-0.192,0 -0.392,-0.07 -0.558,-0.2l-103.771,-77.182c-0.27,-0.201 -0.445,-0.541 -0.445,-0.898v-20.765c0,-0.366 0.174,-0.706 0.445,-0.907l103.771,-77.18c0.166,-0.131 0.366,-0.192 0.558,-0.192c0.174,0 0.323,0.044 0.471,0.13c0.332,0.183 0.532,0.55 0.532,0.968zM238.519,360.404c-0.148,0.445 -0.514,0.741 -0.951,0.741h-29.006c-0.331,0 -0.628,-0.175 -0.82,-0.472c-0.183,-0.278 -0.236,-0.645 -0.131,-0.976l65.87,-208.118c0.131,-0.437 0.514,-0.724 0.942,-0.724h29.014c0.314,0 0.628,0.166 0.811,0.454c0.183,0.288 0.236,0.654 0.131,0.994zM430.694,267.996c0,0.357 -0.156,0.698 -0.436,0.898l-103.771,77.181c-0.166,0.13 -0.357,0.2 -0.558,0.2c-0.166,0 -0.322,-0.052 -0.471,-0.13c-0.331,-0.192 -0.532,-0.558 -0.532,-0.968v-33.062c0,-0.357 0.157,-0.706 0.436,-0.898l72.053,-53.608l-72.053,-53.582c-0.278,-0.209 -0.436,-0.54 -0.436,-0.906v-33.071c0,-0.418 0.201,-0.785 0.532,-0.968c0.148,-0.086 0.305,-0.13 0.471,-0.13c0.201,0 0.392,0.061 0.558,0.192l103.771,77.18c0.28,0.201 0.436,0.541 0.436,0.907z"></path></g></g></g></svg>