<svg version="1.1" xmlns="http://www.w3.org/2000/svg" xmlns:xlink="http://www.w3.org/1999/xlink" width="800px" height="800px" viewBox="0,0,256,256"><g fill="#ffffff" fill-rule="nonzero" stroke="none" stroke-width="1" stroke-linecap="butt" stroke-linejoin="miter" stroke-miterlimit="10" stroke-dasharray="" stroke-dashoffset="0" font-family="none" font-weight="none" font-size="none" text-anchor="none" style="mix-blend-mode: normal"><path d="M0,256v-256h256v256z" id="bgRectangle"></path></g><g fill="#37c3bf" fill-rule="nonzero" stroke="none" stroke-width="1" stroke-linecap="butt" stroke-linejoin="miter" stroke-miterlimit="10" stroke-dasharray="" stroke-dashoffset="0" font-family="none" font-weight="none" font-size="none" text-anchor="none" style="mix-blend-mode: normal"><g transform="scale(0.25,0.25)"><path d="M512,64c-247.4,0 -448,200.6 -448,448c0,247.4 200.6,448 448,448c247.4,0 448,-200.6 448,-448c0,-247.4 -200.6,-448 -448,-448zM755.7,653.2l-243.7,140.8l-243.7,-140.8v-281.4l110,-63.6l-0.4,-0.2h0.2l133.9,-77l134,77h-0.2l-0.3,0.2l110.1,63.6v281.4zM307.9,536.7l87.6,49.9v94.4l96.7,55.9v-212.1l-184.3,-106.4zM511.8,384.9l-93.8,-53.9l-91.1,52.6l185.2,107l185.2,-106.9l-91.4,-52.8zM531.8,736.9l97.3,-56.2v-94.1l87,-49.5v-118.6l-184.3,106.5z"></path></g></g></svg>