<svg version="1.1" xmlns="http://www.w3.org/2000/svg" xmlns:xlink="http://www.w3.org/1999/xlink" width="800px" height="800px" viewBox="0,0,256,256"><g fill="#ffffff" fill-rule="nonzero" stroke="none" stroke-width="1" stroke-linecap="butt" stroke-linejoin="miter" stroke-miterlimit="10" stroke-dasharray="" stroke-dashoffset="0" font-family="none" font-weight="none" font-size="none" text-anchor="none" style="mix-blend-mode: normal"><path d="M0,256v-256h256v256z" id="bgRectangle"></path></g><g fill="#37c3bf" fill-rule="evenodd" stroke="none" stroke-width="1" stroke-linecap="butt" stroke-linejoin="miter" stroke-miterlimit="10" stroke-dasharray="" stroke-dashoffset="0" font-family="none" font-weight="none" font-size="none" text-anchor="none" style="mix-blend-mode: normal"><g transform="scale(10.66667,10.66667)"><path d="M12,22c5.5228,0 10,-4.4772 10,-10c0,-5.52285 -4.4772,-10 -10,-10c-5.52285,0 -10,4.47715 -10,10c0,5.5228 4.47715,10 10,10zM10.1299,13.8h1.3701c0.2357,0 0.3536,0 0.4268,0.0732c0.0732,0.0732 0.0732,0.1911 0.0732,0.4268v4.4299c0,0.8906 0,1.336 0.1962,1.3792c0.1963,0.0432 0.3833,-0.3609 0.7575,-1.1692l2.7314,-5.8997c0.5917,-1.2781 0.8875,-1.9171 0.5926,-2.3787c-0.2949,-0.4615 -0.9991,-0.4615 -2.4076,-0.4615h-1.3701c-0.2357,0 -0.3536,0 -0.4268,-0.0732c-0.0732,-0.0732 -0.0732,-0.1911 -0.0732,-0.4268v-4.42987c0,-0.89067 0,-1.336 -0.1962,-1.37922c-0.1963,-0.04321 -0.3833,0.36091 -0.7575,1.16915l-2.73137,5.89964c-0.59172,1.2782 -0.88758,1.9172 -0.59265,2.3788c0.29493,0.4615 0.99915,0.4615 2.40762,0.4615z"></path></g></g></svg>