<svg version="1.1" xmlns="http://www.w3.org/2000/svg" xmlns:xlink="http://www.w3.org/1999/xlink" width="800px" height="800px" viewBox="0,0,256,256"><g fill="#ffffff" fill-rule="nonzero" stroke="none" stroke-width="1" stroke-linecap="butt" stroke-linejoin="miter" stroke-miterlimit="10" stroke-dasharray="" stroke-dashoffset="0" font-family="none" font-weight="none" font-size="none" text-anchor="none" style="mix-blend-mode: normal"><path d="M0,256v-256h256v256z" id="bgRectangle"></path></g><g fill="#16bbce" fill-rule="nonzero" stroke="none" stroke-width="1" stroke-linecap="butt" stroke-linejoin="miter" stroke-miterlimit="10" stroke-dasharray="" stroke-dashoffset="0" font-family="none" font-weight="none" font-size="none" text-anchor="none" style="mix-blend-mode: normal"><g transform="translate(-0.00688,0.005) scale(0.5,0.5)"><path d="M416,352c-12.6,-0.84 -21,-4 -28,-12c-14,-16 -14,-36 5.49,-52.48l32.82,-29.14c50.27,-44.41 50.27,-117.21 0,-161.63c-37.05,-32.61 -86.77,-48.75 -138.45,-48.75c-60.34,0 -123.39,22 -172,65.11c-90.46,80 -90.46,210.92 0,290.87c45,39.76 105.63,59.59 165.64,60h1.84c60,0 119.07,-19.5 161.2,-56.77c19.46,-17.21 19.46,-22.21 0.08,-51.65c-4.62,-7.56 -13.62,-2.56 -28.62,-3.56zM112,208c0,-17.67311 14.32689,-32 32,-32c17.67311,0 32,14.32689 32,32c0,17.67311 -14.32689,32 -32,32c-17.67311,0 -32,-14.32689 -32,-32zM152,343c-17.67311,0 -32,-14.32689 -32,-32c0,-17.67311 14.32689,-32 32,-32c17.67311,0 32,14.32689 32,32c0,17.67311 -14.32689,32 -32,32zM192,144c0,-17.67311 14.32689,-32 32,-32c17.67311,0 32,14.32689 32,32c0,17.67311 -14.32689,32 -32,32c-17.67311,0 -32,-14.32689 -32,-32zM256,415c-26.50967,0 -48,-21.49033 -48,-48c0,-26.50967 21.49033,-48 48,-48c26.50967,0 48,21.49033 48,48c0,26.50967 -21.49033,48 -48,48zM328,176c-17.67311,0 -32,-14.32689 -32,-32c0,-17.67311 14.32689,-32 32,-32c17.67311,0 32,14.32689 32,32c0,17.67311 -14.32689,32 -32,32z"></path></g></g></svg>