<svg version="1.1" xmlns="http://www.w3.org/2000/svg" xmlns:xlink="http://www.w3.org/1999/xlink" width="800px" height="800px" viewBox="0,0,256,256"><defs><linearGradient x1="14.5455" y1="11.6364" x2="14.5455" y2="32" gradientUnits="userSpaceOnUse" id="color-1"><stop offset="0" stop-color="#33cccc"></stop><stop offset="1" stop-color="#16bbce"></stop></linearGradient></defs><g fill="#ffffff" fill-rule="nonzero" stroke="none" stroke-width="1" stroke-linecap="butt" stroke-linejoin="miter" stroke-miterlimit="10" stroke-dasharray="" stroke-dashoffset="0" font-family="none" font-weight="none" font-size="none" text-anchor="none" style="mix-blend-mode: normal"><path d="M0,256v-256h256v256z" id="bgRectangle"></path></g><g fill="none" fill-rule="none" stroke="none" stroke-width="1" stroke-linecap="butt" stroke-linejoin="miter" stroke-miterlimit="10" stroke-dasharray="" stroke-dashoffset="0" font-family="none" font-weight="none" font-size="none" text-anchor="none" style="mix-blend-mode: normal"><g transform="translate(11.6364,0) scale(8,8)"><path d="M8.72727,0h-1.45454c-0.80333,0 -1.45455,0.65122 -1.45455,1.45455v4.36363c0,0.80333 0.65122,1.45455 1.45455,1.45455h1.45454c0.80333,0 1.45453,-0.65122 1.45453,-1.45455v-4.36363c0,-0.80333 -0.6512,-1.45455 -1.45453,-1.45455z" fill="#16bbce" fill-rule="nonzero"></path><path d="M21.8182,0h-1.4546c-0.8033,0 -1.4545,0.65122 -1.4545,1.45455v4.36363c0,0.80333 0.6512,1.45455 1.4545,1.45455h1.4546c0.8033,0 1.4545,-0.65122 1.4545,-1.45455v-4.36363c0,-0.80333 -0.6512,-1.45455 -1.4545,-1.45455z" fill="#16bbce" fill-rule="nonzero"></path><path d="M0,11.6364h29.0909v-5.81822c0,-1.60664 -1.3024,-2.90909 -2.9091,-2.90909h-23.27271c-1.60664,0 -2.90909,1.30245 -2.90909,2.90909z" fill="#16bbce" fill-rule="nonzero"></path><path d="M2.90909,32c-1.60664,0 -2.90909,-1.3024 -2.90909,-2.9091v-17.4545h29.0909v17.4545c0,1.6067 -1.3024,2.9091 -2.9091,2.9091zM10.3799,19.1073l3.6364,3.6364l6.5454,-6.5455c0.7273,-0.7273 2.1818,0.7274 1.4546,1.4546c-0.1549,0.1548 -0.5893,0.6064 -1.1809,1.2214c-2.1868,2.2732 -6.5207,6.7786 -6.8191,6.7786c-0.2845,0 -2.5995,-2.4574 -4.04452,-3.9913c-0.4806,-0.5101 -0.86497,-0.9182 -1.04641,-1.0996c-0.72698,-0.7272 0.72735,-2.1818 1.45453,-1.4546z" fill="url(#color-1)" fill-rule="evenodd"></path></g></g></svg>