<svg version="1.1" xmlns="http://www.w3.org/2000/svg" xmlns:xlink="http://www.w3.org/1999/xlink" width="800px" height="800px" viewBox="0,0,256,256"><g fill="#ffffff" fill-rule="nonzero" stroke="none" stroke-width="1" stroke-linecap="butt" stroke-linejoin="miter" stroke-miterlimit="10" stroke-dasharray="" stroke-dashoffset="0" font-family="none" font-weight="none" font-size="none" text-anchor="none" style="mix-blend-mode: normal"><path d="M0,256v-256h256v256z" id="bgRectangle"></path></g><g fill="#37c3bf" fill-rule="nonzero" stroke="none" stroke-width="1" stroke-linecap="butt" stroke-linejoin="miter" stroke-miterlimit="10" stroke-dasharray="" stroke-dashoffset="0" font-family="none" font-weight="none" font-size="none" text-anchor="none" style="mix-blend-mode: normal"><g transform="translate(0.00002,-0.00792) scale(8,8)"><path d="M21.7868,21.556c1.1071,-0.1127 1.947,-1.051 1.9088,-2.1771c-0.0381,-1.1259 -0.9926,-2.0267 -2.1379,-2.0267h-0.0763c-1.1836,0.0375 -2.0997,1.0134 -2.0615,2.1769c0.0382,0.563 0.2672,1.0509 0.6108,1.3887c-1.298,2.5148 -3.2832,4.3539 -6.2609,5.8928c-2.0234,1.0509 -4.123,1.4263 -6.22265,1.1636c-1.71797,-0.2252 -3.05414,-0.9758 -3.89414,-2.2146c-1.22157,-1.8391 -1.33606,-3.8284 -0.30528,-5.8176c0.72539,-1.4263 1.87055,-2.4773 2.59594,-3.0028c-0.15269,-0.4879 -0.3818,-1.3136 -0.49629,-1.9141c-5.53558,3.941 -4.96289,9.2708 -3.28312,11.7855c1.25976,1.8767 3.81761,3.0403 6.64265,3.0403c0.76348,0 1.52699,-0.0752 2.29059,-0.2627c4.8866,-0.9384 8.5897,-3.791 10.6893,-8.0322zM28.5059,16.9018c-2.9014,-3.3405 -7.1772,-5.1796 -12.0638,-5.1796h-0.6107c-0.3436,-0.6756 -1.069,-1.1261 -1.8707,-1.1261h-0.0764c-1.1834,0.0376 -2.0995,1.0134 -2.0614,2.177c0.0382,1.126 0.9925,2.0268 2.1378,2.0268h0.0763c0.8399,-0.0375 1.5653,-0.563 1.8707,-1.2762h0.6871c2.9015,0 5.6501,0.8257 8.1317,2.4397c1.9087,1.2386 3.2831,2.8526 4.0466,4.8043c0.649,1.5764 0.6108,3.1153 -0.0764,4.429c-1.0689,1.9892 -2.8631,3.0777 -5.2301,3.0777c-1.5271,0 -2.9777,-0.4504 -3.7413,-0.7882c-0.4199,0.3753 -1.1835,0.9758 -1.718,1.3513c1.6417,0.7506 3.3214,1.1635 4.9248,1.1635c3.6649,0 6.3755,-1.9894 7.4063,-3.9786c1.107,-2.177 1.0306,-5.9303 -1.8325,-9.1206zM9.1123,22.1939c0.03821,1.126 0.9926,2.0267 2.1379,2.0267h0.0764c1.1834,-0.0374 2.0996,-1.0133 2.0614,-2.1768c-0.0381,-1.1261 -0.9926,-2.0268 -2.1378,-2.0268h-0.0763c-0.0764,0 -0.191,0 -0.2672,0.0374c-1.5653,-2.5522 -2.21428,-5.3296 -1.98518,-8.3323c0.15258,-2.25204 0.91617,-4.20382 2.25238,-5.8178c1.107,-1.38875 3.2449,-2.06434 4.6957,-2.10178c4.0466,-0.07512 5.7644,4.87927 5.879,6.86858c0.4963,0.1126 1.3362,0.3754 1.9089,0.5631c-0.4582,-6.08038 -4.2758,-9.23322 -7.9406,-9.23322c-3.436,0 -6.6046,2.43969 -7.86448,6.04289c-1.75605,4.80423 -0.61078,9.42083 1.52707,13.06163c-0.19078,0.2627 -0.30539,0.6756 -0.26719,1.0885z"></path></g></g></svg>