<svg version="1.1" xmlns="http://www.w3.org/2000/svg" xmlns:xlink="http://www.w3.org/1999/xlink" width="800px" height="800px" viewBox="0,0,256,256"><g fill="#ffffff" fill-rule="nonzero" stroke="none" stroke-width="1" stroke-linecap="butt" stroke-linejoin="miter" stroke-miterlimit="10" stroke-dasharray="" stroke-dashoffset="0" font-family="none" font-weight="none" font-size="none" text-anchor="none" style="mix-blend-mode: normal"><path d="M0,256v-256h256v256z" id="bgRectangle"></path></g><g fill="#37c3bf" fill-rule="evenodd" stroke="none" stroke-width="1" stroke-linecap="butt" stroke-linejoin="miter" stroke-miterlimit="10" stroke-dasharray="" stroke-dashoffset="0" font-family="none" font-weight="none" font-size="none" text-anchor="none" style="mix-blend-mode: normal"><g transform="scale(10.66667,10.66667)"><path d="M12,6.036c-2.667,0 -4.333,1.325 -5,3.976c1,-1.325 2.167,-1.822 3.5,-1.491c0.761,0.189 1.305,0.738 1.906,1.345c0.981,0.989 2.116,2.134 4.594,2.134c2.667,0 4.333,-1.325 5,-3.976c-1,1.325 -2.166,1.822 -3.5,1.491c-0.761,-0.189 -1.305,-0.738 -1.907,-1.345c-0.98,-0.99 -2.114,-2.134 -4.593,-2.134zM7,12c-2.667,0 -4.333,1.325 -5,3.976c1,-1.326 2.167,-1.822 3.5,-1.491c0.761,0.189 1.305,0.738 1.907,1.345c0.98,0.989 2.115,2.134 4.594,2.134c2.667,0 4.333,-1.325 5,-3.976c-1,1.325 -2.167,1.822 -3.5,1.491c-0.761,-0.189 -1.305,-0.738 -1.906,-1.345c-0.982,-0.989 -2.117,-2.134 -4.595,-2.134z"></path></g></g></svg>