<svg version="1.1" xmlns="http://www.w3.org/2000/svg" xmlns:xlink="http://www.w3.org/1999/xlink" width="800px" height="800px" viewBox="0,0,256,256"><g fill="#ffffff" fill-rule="nonzero" stroke="none" stroke-width="1" stroke-linecap="butt" stroke-linejoin="miter" stroke-miterlimit="10" stroke-dasharray="" stroke-dashoffset="0" font-family="none" font-weight="none" font-size="none" text-anchor="none" style="mix-blend-mode: normal"><path d="M0,256v-256h256v256z" id="bgRectangle"></path></g><g fill="#37c3bf" fill-rule="nonzero" stroke="none" stroke-width="1" stroke-linecap="butt" stroke-linejoin="miter" stroke-miterlimit="10" stroke-dasharray="" stroke-dashoffset="0" font-family="none" font-weight="none" font-size="none" text-anchor="none" style="mix-blend-mode: normal"><g transform="translate(0,-0.14087) scale(16,16)"><g><path d="M15,5.6l-4.6,-4.6c-1.26662,-1.24721 -3.28019,-1.30823 -4.62,-0.14l1.88,1.88c0.38659,-0.13799 0.81628,-0.07738 1.14963,0.16214c0.33334,0.23953 0.52784,0.62745 0.52037,1.03786v0.06c-0.00638,0.1301 -0.03338,0.25837 -0.08,0.38l2.45,2.4c0.11817,-0.04657 0.24314,-0.07359 0.37,-0.08c0.71797,0 1.3,0.58203 1.3,1.3c0,0.71797 -0.58203,1.3 -1.3,1.3c-0.71797,0 -1.3,-0.58203 -1.3,-1.3v0c0.00641,-0.12686 0.03343,-0.25183 0.08,-0.37l-2.25,-2.25v5.23c0.44403,0.21129 0.72777,0.65827 0.73,1.15c0,0.71797 -0.58203,1.3 -1.3,1.3c-0.71797,0 -1.3,-0.58203 -1.3,-1.3c0.00342,-0.46472 0.2604,-0.89046 0.67,-1.11v-5.58c-0.39735,-0.21254 -0.65231,-0.61973 -0.67,-1.07c0.00641,-0.12686 0.03343,-0.25183 0.08,-0.37l-1.9,-1.9l-3.91,3.87c-0.63692,0.63427 -0.99497,1.49613 -0.99497,2.395c0,0.89887 0.35804,1.76073 0.99497,2.395v0l4.6,4.61c0.63427,0.63692 1.49613,0.99497 2.395,0.99497c0.89887,0 1.76073,-0.35804 2.395,-0.99497v0l4.61,-4.6c0.63692,-0.63427 0.99497,-1.49613 0.99497,-2.395c0,-0.89887 -0.35804,-1.76073 -0.99497,-2.395z"></path></g></g></g></svg>