<svg version="1.1" xmlns="http://www.w3.org/2000/svg" xmlns:xlink="http://www.w3.org/1999/xlink" width="800px" height="800px" viewBox="0,0,256,256"><g transform="translate(12.8,12.8) scale(0.9,0.9)"><g fill="#ffffff" fill-rule="nonzero" stroke="none" stroke-width="1" stroke-linecap="butt" stroke-linejoin="miter" stroke-miterlimit="10" stroke-dasharray="" stroke-dashoffset="0" font-family="none" font-weight="none" font-size="none" text-anchor="none" style="mix-blend-mode: normal"><path d="M-14.22222,270.22222v-284.44444h284.44444v284.44444z" id="bgRectangle"></path></g><g fill="#ebf9f8" fill-rule="nonzero" stroke="none" stroke-width="1" stroke-linecap="butt" stroke-linejoin="miter" stroke-miterlimit="10" stroke-dasharray="" stroke-dashoffset="0" font-family="none" font-weight="none" font-size="none" text-anchor="none" style="mix-blend-mode: normal"><path d="M56.88889,270.22222c-39.27358,0 -71.11111,-31.83753 -71.11111,-71.11111v-142.22222c0,-39.27358 31.83753,-71.11111 71.11111,-71.11111h142.22222c39.27358,0 71.11111,31.83753 71.11111,71.11111v142.22222c0,39.27358 -31.83753,71.11111 -71.11111,71.11111z" id="shape"></path></g><g fill="#37c3bf" fill-rule="nonzero" stroke="none" stroke-width="1" stroke-linecap="butt" stroke-linejoin="miter" stroke-miterlimit="10" stroke-dasharray="" stroke-dashoffset="0" font-family="none" font-weight="none" font-size="none" text-anchor="none" style="mix-blend-mode: normal"><g transform="translate(-0.0016,-0.00432) scale(8.63348,8.63348)"><g><g><path d="M10.226,23.049v0l-10.226,1.513l13.642,4.896l12.146,-1.632l3.745,-15.817l-16.888,-1.656zM12.31,16.775c0.262,-0.719 0.769,-1.352 1.497,-1.735c0.391,-0.207 0.806,-0.323 1.22,-0.357l-0.159,0.085l0.006,0.146l-0.224,0.118l-0.132,0.213l0.033,0.099l0.072,-0.021l0.109,-0.197l0.151,-0.105l0.033,0.063l-0.151,0.114l-0.146,0.276l-0.095,-0.002l-0.1,0.178l0.069,0.277l0.039,-0.02l0.038,0.104l-0.074,0.026l0.025,0.087l0.031,0.137l-0.104,0.27l0.098,0.227l-0.165,0.111l-0.181,-0.093l-0.161,0.076l-0.106,0.03l-0.154,0.354l-0.082,0.062c0,0 0.02,0.09 0.024,0.099c0.004,0.009 -0.031,0.237 -0.031,0.237l-0.482,0.256l0.015,0.066l-0.243,0.077l-0.08,0.17l-0.229,0.099l-0.159,0.25l-0.059,0.244l0.085,0.168l0.063,-0.012l0.038,-0.179l0.056,-0.021l0.076,-0.011l0.066,-0.028l-0.043,-0.086l0.031,-0.07l0.104,0.035l0.056,-0.018l-0.019,-0.089l0.048,-0.021l0.076,0.102l0.169,0.125l0.133,0.001l0.317,0.058l0.154,-0.135l0.122,0.006l0.079,0.165l0.144,0.063l0.358,-0.143l0.217,0.037l0.109,-0.029l-0.023,-0.131l0.082,-0.134l-0.129,-0.249l-0.028,-0.236l0.135,-0.084l0.081,-0.125l-0.093,-0.18l0.106,-0.189l-0.004,-0.113l-0.052,0.021l-0.098,-0.162l0.053,-0.104l-0.056,-0.192l-0.241,-0.056l-0.079,-0.245l0.244,-0.148l-0.059,-0.178l0.158,-0.002l0.063,-0.058l-0.258,-0.138l-0.056,-0.146l0.08,-0.104l0.125,-0.028l0.177,0.001l0.179,0.128l0.176,0.331l-0.103,0.052l0.006,0.15l0.17,-0.103l0.132,0.039l0.207,0.114l0.086,-0.03l0.271,0.079l0.199,0.13l0.006,-0.023l0.183,0.062l0.012,0.055l-0.015,0.035l0.076,0.019l0.013,0.01l-0.021,-0.055l-0.012,-0.063l0.053,-0.027l0.036,0.017l0.032,0.063l0.002,0.035l-0.034,0.049l0.021,0.028l0.004,-0.003l0.002,0.01l0.061,0.08l0.047,-0.011l0.015,0.056l-0.046,0.024l-0.057,-0.028l-0.046,0.032l0.033,0.183c0,0 0,0 -0.001,0l0.021,0.035l0.069,-0.033l-0.011,-0.154l0.031,-0.023l0.088,0.084l0.102,-0.046l0.008,-0.143l0.164,-0.095l-0.15,-0.11l-0.028,-0.054l0.136,-0.053l-0.061,-0.226l-0.105,-0.052l-0.191,0.103l-0.127,-0.124l-0.155,0.006l-0.045,-0.06l0.159,-0.085l-0.057,-0.149l0.012,-0.095l0.088,-0.083l0.279,0.174l0.102,0.104l-0.076,0.057l0.04,0.067l0.045,-0.018l0.047,0.064l0.018,-0.006l-0.006,-0.037l0.041,-0.029l0.054,0.084l0.084,0.021l0.006,0.002l-0.002,0.002l0.026,0.006l0.121,0.174l-0.025,0.117l-0.229,-0.153l0.08,0.308l0.109,-0.013l0.062,0.118l0.103,0.002l-0.022,-0.098l0.1,-0.053l-0.023,-0.326l-0.115,-0.17l-0.109,-0.076l-0.125,0.076l-0.041,-0.115l0.062,-0.057l0.147,0.055l-0.089,-0.192l-0.047,-0.044l-0.074,0.01l0.025,0.075l-0.078,0.024l-0.07,-0.116l-0.057,0.006l-0.096,-0.171c0,0 0.096,-0.057 0.092,-0.062c-0.004,-0.009 0.074,0.133 0.074,0.133l0.154,0.051l-0.001,-0.071l-0.111,-0.036l-0.06,-0.128l0.062,-0.129l-0.083,-0.159l-0.211,-0.102l0.081,0.155l-0.038,0.035l-0.059,-0.02l0.085,0.171l-0.047,0.057l-0.096,-0.192l0.043,-0.033l-0.037,-0.135v-0.082l-0.074,-0.141c0.584,0.286 1.088,0.752 1.414,1.37c0.375,0.712 0.451,1.505 0.277,2.229l-0.076,-0.002l-0.121,-0.102l-0.088,-0.021l-0.063,0.048l0.026,0.071l-0.08,0.093l0.109,0.094l-0.128,0.089l-0.019,-0.033l-0.036,-0.103l-0.072,-0.099l-0.198,-0.024l-0.099,-0.133l-0.137,0.045l0.02,0.067l-0.092,0.025l-0.047,-0.16l-0.099,-0.119l-0.088,0.012l-0.145,0.105l0.006,0.098l0.07,0.131l0.053,0.084l0.084,-0.012l0.253,0.045l0.029,0.1l0.129,0.046l-0.056,0.053l-0.029,0.298l-0.051,-0.009l-0.047,-0.103l-0.033,0.068l0.018,0.067l0.067,0.056l0.085,-0.047l0.033,0.021l0.015,-0.037l0.003,-0.19l0.089,-0.097l0.063,0.123l-0.018,0.058l-0.035,0.154l-0.106,0.062l-0.06,0.17l0.181,-0.043l0.081,0.054l-0.122,0.083l-0.042,0.115l0.08,0.146c-0.059,0.066 -0.118,0.132 -0.184,0.193l-0.022,-0.008l-0.12,-0.225l0.031,-0.191l-0.09,-0.136l-0.088,0.046l-0.021,-0.043l0.01,-0.067l-0.069,-0.283l0.162,-0.085l-0.191,-0.304l-0.104,-0.07l-0.066,-0.125l-0.026,-0.064l-0.165,-0.106l-0.158,0.083l-0.389,-0.192l-0.082,0.076l0.031,0.063l-0.098,0.03l-0.041,-0.034l-0.24,0.123l-0.164,0.432l0.062,0.117l0.022,-0.004l0.111,0.211l0.088,0.032l0.063,0.118l-0.032,0.102l0.076,0.186l-0.248,0.102l-0.246,0.383h-0.253l-0.091,0.058l-0.037,0.124l-0.226,0.119l-0.087,0.185l-0.188,0.099l0.05,0.094c-0.909,-0.182 -1.73,-0.754 -2.195,-1.635c-0.271,-0.514 -0.373,-1.067 -0.352,-1.611zM10.246,27.547l-3.348,-1.277l1.614,-0.215l3.756,1.255zM27.834,13.173l-3.154,13.325l-13.513,-3.822l0.771,-3.976c0.065,0.265 0.154,0.525 0.287,0.776c0.629,1.189 1.854,1.863 3.118,1.849c0.269,-0.004 0.54,-0.039 0.808,-0.106c0.067,-0.016 0.137,-0.035 0.203,-0.059c0.188,-0.061 0.379,-0.138 0.562,-0.234c0.011,-0.006 0.021,-0.012 0.032,-0.018c0.089,-0.049 0.175,-0.102 0.259,-0.154c0.278,-0.184 0.521,-0.401 0.729,-0.646l0.002,0.002l0.045,-0.035l-0.002,-0.021c0.258,-0.313 0.453,-0.67 0.586,-1.045c0.009,-0.024 0.018,-0.051 0.024,-0.073c0.022,-0.071 0.046,-0.144 0.063,-0.214c0.209,-0.808 0.129,-1.693 -0.289,-2.486c-0.424,-0.802 -1.117,-1.367 -1.911,-1.649c-0.183,-0.065 -0.374,-0.115 -0.567,-0.147c-0.73,-0.127 -1.508,-0.024 -2.211,0.348c-0.488,0.257 -0.878,0.622 -1.181,1.043l0.845,-4.36z"></path><path d="M8.351,1.92l0.007,0.059l-0.087,0.017l-0.011,0.123h0.104l0.136,-0.015l0.072,-0.084l-0.076,-0.028l-0.041,-0.049l-0.061,-0.1l-0.03,-0.142l-0.117,0.026l-0.033,0.048v0.058l0.057,0.039z"></path><path d="M8.251,1.967l0.007,-0.076l-0.07,-0.029l-0.095,0.021l-0.071,0.115v0.073h0.082z"></path><path d="M6.283,2.294l-0.023,0.053h-0.101v0.055h0.024c0,0 0.001,0.01 0.004,0.024l0.063,-0.004l0.038,-0.023l0.012,-0.052l0.049,-0.004l0.021,-0.042l-0.048,-0.008z"></path><path d="M6.02,2.39l-0.005,0.05l0.074,-0.004l0.008,-0.053l-0.043,-0.036z"></path><path d="M17.646,18.328l-0.101,0.044l0.042,0.081l0.067,0.104l0.098,0.021l-0.009,-0.072l0.023,-0.053l0.05,-0.091l0.101,-0.082l-0.067,-0.083l-0.053,-0.005l-0.045,0.025l-0.007,0.059l-0.007,0.084l-0.043,0.031z"></path><path d="M17.66,18.303l0.065,-0.029l-0.007,-0.065l-0.058,-0.068l-0.119,-0.008l-0.059,0.031l0.036,0.065z"></path><path d="M16.434,16.859l0.03,0.048l0.035,0.021l0.043,-0.013l0.024,0.038l0.041,-0.002l-0.012,-0.041l-0.019,-0.031l-0.052,0.006l-0.043,-0.08l-0.043,0.022l0.012,0.019c0.002,0 -0.007,0.006 -0.016,0.013z"></path><path d="M16.432,16.77l0.007,-0.049l-0.046,-0.01l-0.041,0.018l0.035,0.056z"></path><path d="M1.302,19.608c0.002,0.001 0.003,0.001 0.003,0.001c0.002,0.002 0.003,0.003 0.004,0.005c0.764,0.632 1.737,0.851 2.645,0.683c0.084,-0.017 0.166,-0.035 0.248,-0.058c0.62,-0.167 1.198,-0.521 1.638,-1.054c0.441,-0.531 0.681,-1.162 0.729,-1.805c0.007,-0.086 0.01,-0.17 0.01,-0.254c-0.003,-0.924 -0.399,-1.837 -1.164,-2.472c0,0 -0.001,-0.002 -0.003,-0.002c0,0 -0.001,-0.001 -0.003,-0.002c-0.002,-0.003 -0.005,-0.005 -0.008,-0.007c-0.763,-0.624 -1.729,-0.838 -2.63,-0.671c-0.083,0.015 -0.165,0.034 -0.249,0.057c-0.62,0.167 -1.197,0.52 -1.638,1.051c-0.439,0.532 -0.679,1.165 -0.729,1.808c-0.006,0.084 -0.009,0.17 -0.009,0.254c0.003,0.916 0.394,1.824 1.149,2.457c0.002,0.005 0.005,0.007 0.007,0.009zM1.586,19.484l1.036,-1.25c0.342,0.299 0.629,0.623 0.849,0.95c-0.709,0.447 -1.419,0.58 -1.885,0.3zM3.48,17.198l0.656,-0.791c0.376,0.296 0.77,0.528 1.158,0.69c-0.164,0.352 -0.387,0.709 -0.666,1.051zM4.455,18.35c-0.243,0.271 -0.505,0.502 -0.77,0.693c-0.232,-0.354 -0.533,-0.697 -0.896,-1.013l0.522,-0.63zM3.276,17.029l-1.159,-0.962c0.283,-0.339 0.596,-0.625 0.912,-0.853c0.234,0.355 0.537,0.707 0.904,1.021zM3.108,17.232l-0.522,0.631c-0.38,-0.3 -0.779,-0.535 -1.173,-0.697c0.138,-0.298 0.318,-0.6 0.539,-0.89zM2.277,19.881c0.414,-0.027 0.875,-0.192 1.331,-0.475c0.123,0.212 0.218,0.428 0.28,0.632c-0.534,0.097 -1.093,0.048 -1.611,-0.157zM4.138,19.981c-0.07,-0.233 -0.176,-0.476 -0.315,-0.718c0.29,-0.205 0.573,-0.454 0.837,-0.745l0.816,0.677c-0.377,0.389 -0.842,0.651 -1.338,0.786zM5.652,18.996l-0.819,-0.678c0.298,-0.364 0.533,-0.747 0.705,-1.127c0.263,0.093 0.521,0.15 0.765,0.177c-0.045,0.577 -0.259,1.148 -0.651,1.628zM5.858,15.559c0.296,0.47 0.448,1.01 0.453,1.555c-0.213,-0.023 -0.44,-0.078 -0.674,-0.158c0.192,-0.502 0.269,-0.987 0.221,-1.397zM5.396,16.859c-0.363,-0.155 -0.735,-0.375 -1.092,-0.656l1.035,-1.249c0.361,0.404 0.361,1.126 0.057,1.905zM5.138,14.782l-1.037,1.252c-0.347,-0.302 -0.635,-0.631 -0.856,-0.962c0.713,-0.447 1.428,-0.578 1.893,-0.29zM4.423,14.378c-0.409,0.031 -0.864,0.195 -1.314,0.474c-0.121,-0.209 -0.214,-0.418 -0.276,-0.618c0.527,-0.098 1.077,-0.052 1.59,0.144zM2.586,14.289c0.067,0.229 0.172,0.468 0.307,0.704c-0.343,0.241 -0.676,0.544 -0.979,0.906l-0.809,-0.669c0.4,-0.473 0.92,-0.79 1.481,-0.941zM0.943,15.439l0.807,0.668c-0.24,0.314 -0.433,0.643 -0.58,0.965c-0.259,-0.088 -0.511,-0.146 -0.749,-0.171c0.038,-0.51 0.21,-1.016 0.522,-1.462zM0.852,18.69c-0.289,-0.466 -0.436,-0.997 -0.441,-1.533c0.209,0.022 0.433,0.075 0.661,0.153c-0.189,0.495 -0.267,0.973 -0.22,1.38zM1.313,17.404c0.367,0.155 0.744,0.379 1.105,0.662l-1.036,1.252c-0.37,-0.402 -0.376,-1.128 -0.069,-1.914z"></path><path d="M13.142,8.772c0.228,0.432 0.587,0.797 1.058,1.033c0.468,0.235 0.979,0.303 1.46,0.23c0.062,-0.011 0.127,-0.022 0.189,-0.037c0.678,-0.16 1.283,-0.604 1.623,-1.271c0.002,-0.004 0.002,-0.006 0.002,-0.008c0.002,-0.002 0.002,-0.003 0.004,-0.003v-0.004c0.338,-0.673 0.334,-1.432 0.053,-2.072c-0.024,-0.06 -0.053,-0.118 -0.084,-0.174c-0.229,-0.431 -0.59,-0.798 -1.059,-1.033c-0.471,-0.234 -0.979,-0.303 -1.462,-0.229c-0.064,0.01 -0.128,0.021 -0.19,0.036c-0.682,0.159 -1.291,0.611 -1.629,1.284v0.003c-0.001,0 -0.001,0.001 -0.003,0.002c0,0.002 -0.002,0.005 -0.002,0.008c-0.333,0.672 -0.326,1.423 -0.049,2.062c0.028,0.059 0.056,0.116 0.089,0.173zM13.321,8.681c0.158,-0.089 0.315,-0.207 0.467,-0.349c0.237,0.213 0.52,0.407 0.839,0.571l-0.356,0.712c-0.42,-0.214 -0.743,-0.545 -0.95,-0.934zM13.93,8.193c0.223,-0.232 0.43,-0.517 0.603,-0.844l0.697,0.352l-0.513,1.022c-0.3,-0.152 -0.565,-0.333 -0.787,-0.53zM14.454,9.699l0.355,-0.71c0.274,0.123 0.548,0.21 0.813,0.263c-0.021,0.207 -0.021,0.402 0.002,0.585c-0.386,0.058 -0.789,0.017 -1.17,-0.138zM15.65,9.055c-0.244,-0.051 -0.498,-0.132 -0.751,-0.247l0.51,-1.019l0.556,0.28c-0.154,0.333 -0.261,0.668 -0.315,0.986zM15.501,7.611l0.504,-1.008c0.243,0.134 0.458,0.287 0.646,0.449c-0.221,0.233 -0.424,0.514 -0.594,0.836zM15.814,9.799c-0.02,-0.159 -0.019,-0.333 0,-0.515c0.398,0.055 0.767,0.03 1.061,-0.073c-0.296,0.293 -0.664,0.493 -1.061,0.588zM15.844,9.091c0.053,-0.298 0.152,-0.616 0.301,-0.933l1.104,0.553c-0.233,0.343 -0.77,0.471 -1.405,0.38zM17.336,8.531l-1.102,-0.553c0.162,-0.306 0.354,-0.571 0.558,-0.79c0.45,0.449 0.672,0.951 0.544,1.343zM17.512,7.952c-0.092,-0.303 -0.293,-0.613 -0.58,-0.904c0.137,-0.127 0.279,-0.233 0.42,-0.314c0.164,0.378 0.223,0.801 0.16,1.218zM16.456,5.702c0.353,0.213 0.627,0.512 0.812,0.856c-0.162,0.092 -0.32,0.212 -0.479,0.356c-0.199,-0.18 -0.434,-0.347 -0.693,-0.492zM16.279,5.605l-0.362,0.724c-0.317,-0.157 -0.644,-0.267 -0.953,-0.329c0.022,-0.211 0.021,-0.41 -0.001,-0.596c0.433,-0.066 0.892,-0.006 1.316,0.201zM14.936,6.195c0.289,0.062 0.591,0.164 0.891,0.313l-0.507,1.013l-0.699,-0.35c0.156,-0.329 0.26,-0.662 0.315,-0.976zM14.772,5.441c0.02,0.16 0.019,0.338 -0.002,0.525c-0.403,-0.057 -0.774,-0.03 -1.07,0.075c0.296,-0.299 0.671,-0.504 1.072,-0.6zM14.742,6.162c-0.054,0.294 -0.152,0.606 -0.299,0.919l-1.103,-0.553c0.239,-0.335 0.772,-0.459 1.402,-0.366zM13.249,6.709l1.104,0.552c-0.163,0.31 -0.358,0.579 -0.565,0.8c-0.454,-0.454 -0.673,-0.959 -0.539,-1.352zM13.072,7.306c0.094,0.298 0.293,0.606 0.576,0.891c-0.136,0.127 -0.274,0.231 -0.412,0.31c-0.161,-0.373 -0.219,-0.79 -0.164,-1.201z"></path><path d="M21.377,16.935c0.111,0.604 0.482,1.159 1.061,1.485h0.002c0,0 0,0 0.002,0.002c0.002,0 0.004,0.002 0.008,0.004c0.574,0.318 1.234,0.346 1.808,0.129c0.054,-0.021 0.104,-0.043 0.156,-0.068c0.388,-0.184 0.726,-0.484 0.953,-0.886c0.225,-0.402 0.308,-0.847 0.264,-1.273c-0.006,-0.057 -0.015,-0.112 -0.024,-0.169c-0.11,-0.602 -0.478,-1.153 -1.047,-1.48c-0.002,-0.001 -0.004,-0.002 -0.008,-0.002c0,-0.002 -0.002,-0.002 -0.002,-0.002c-0.001,0 -0.001,-0.002 -0.002,-0.002c-0.578,-0.324 -1.244,-0.352 -1.82,-0.133c-0.052,0.021 -0.104,0.042 -0.154,0.065c-0.389,0.186 -0.727,0.484 -0.953,0.888c-0.227,0.402 -0.309,0.846 -0.264,1.273c0.002,0.057 0.01,0.113 0.02,0.169zM21.555,16.911c0.143,-0.01 0.301,-0.001 0.461,0.024c-0.065,0.353 -0.059,0.679 0.021,0.945c-0.251,-0.274 -0.416,-0.61 -0.482,-0.969zM22.186,16.969c0.258,0.059 0.527,0.158 0.795,0.301l-0.53,0.947c-0.286,-0.225 -0.373,-0.698 -0.265,-1.248zM23.646,16.452l0.269,-0.477c0.286,0.153 0.577,0.259 0.854,0.319c-0.056,0.211 -0.139,0.43 -0.248,0.647zM24.438,17.098c-0.148,0.26 -0.317,0.483 -0.5,0.671c-0.194,-0.206 -0.437,-0.398 -0.715,-0.564l0.336,-0.599zM23.492,16.363l-0.865,-0.484c0.129,-0.207 0.273,-0.391 0.424,-0.547c0.195,0.203 0.434,0.394 0.708,0.557zM23.404,16.52l-0.336,0.599c-0.283,-0.151 -0.569,-0.257 -0.844,-0.317c0.065,-0.252 0.168,-0.512 0.312,-0.771zM22.604,18.305l0.531,-0.946c0.266,0.157 0.493,0.339 0.678,0.53c-0.417,0.379 -0.872,0.549 -1.209,0.416zM23.121,18.484c0.268,-0.068 0.546,-0.23 0.809,-0.469c0.104,0.125 0.189,0.252 0.254,0.375c-0.334,0.128 -0.704,0.161 -1.063,0.094zM24.339,18.324c-0.071,-0.143 -0.168,-0.285 -0.284,-0.426c0.195,-0.2 0.381,-0.438 0.535,-0.713l0.61,0.344c-0.205,0.362 -0.511,0.63 -0.861,0.795zM25.43,16.182c-0.142,0.01 -0.295,0 -0.453,-0.024c0.065,-0.347 0.059,-0.669 -0.02,-0.933c0.243,0.273 0.404,0.604 0.473,0.957zM25.453,16.348c0.033,0.343 -0.02,0.697 -0.171,1.024l-0.608,-0.343c0.119,-0.234 0.207,-0.475 0.266,-0.703c0.179,0.028 0.352,0.036 0.513,0.022zM24.807,16.125c-0.261,-0.058 -0.535,-0.16 -0.807,-0.303l0.533,-0.947c0.292,0.22 0.381,0.697 0.274,1.25zM24.379,14.79l-0.533,0.944c-0.26,-0.154 -0.486,-0.334 -0.671,-0.523c0.414,-0.377 0.864,-0.549 1.204,-0.421zM23.878,14.609c-0.271,0.07 -0.553,0.232 -0.821,0.473c-0.104,-0.125 -0.19,-0.254 -0.258,-0.381c0.34,-0.128 0.715,-0.162 1.079,-0.092zM22.643,14.768c0.072,0.146 0.172,0.292 0.293,0.434c-0.166,0.17 -0.322,0.367 -0.463,0.59l-0.617,-0.349c0.203,-0.299 0.474,-0.529 0.787,-0.675zM21.764,15.596l0.62,0.348c-0.151,0.275 -0.263,0.554 -0.329,0.824c-0.186,-0.029 -0.361,-0.036 -0.525,-0.024c-0.039,-0.386 0.032,-0.785 0.234,-1.148z"></path><path d="M25.717,10.349c1.633,0.471 3.344,-0.475 3.814,-2.106c0.472,-1.63 -0.475,-3.343 -2.106,-3.814c-1.176,-0.338 -2.396,0.058 -3.157,0.919c-0.009,0.004 -0.016,0.006 -0.018,0.008l0.003,0.006c-0.289,0.328 -0.512,0.725 -0.642,1.174c-0.021,0.067 -0.035,0.132 -0.049,0.199c-0.343,1.568 0.588,3.163 2.155,3.614zM24.796,9.59l0.005,-0.002c-0.002,-0.006 -0.135,-0.265 -0.186,-0.765c0.242,0.144 0.535,0.285 0.885,0.413c-0.002,0.36 0.036,0.627 0.07,0.797c-0.287,-0.108 -0.547,-0.259 -0.774,-0.443zM25.505,8.969c-0.368,-0.145 -0.67,-0.303 -0.909,-0.458c-0.005,-0.267 0.016,-0.579 0.079,-0.94c0.261,0.143 0.572,0.29 0.948,0.431c-0.068,0.366 -0.103,0.69 -0.118,0.967zM25.674,7.75c-0.379,-0.144 -0.691,-0.295 -0.947,-0.44c0.028,-0.132 0.062,-0.268 0.104,-0.409c0.037,-0.129 0.076,-0.25 0.117,-0.364c0.289,0.011 0.636,0.048 1.029,0.124c-0.051,0.149 -0.101,0.302 -0.147,0.469c-0.064,0.217 -0.114,0.424 -0.156,0.62zM27.186,8.438c0.371,0.069 0.693,0.103 0.969,0.112c-0.137,0.336 -0.286,0.611 -0.434,0.835c-0.267,0.01 -0.582,-0.007 -0.945,-0.065c0.134,-0.246 0.275,-0.537 0.41,-0.882zM26.514,9.27c-0.146,-0.031 -0.291,-0.065 -0.449,-0.11c-0.105,-0.03 -0.209,-0.063 -0.306,-0.097c0.009,-0.275 0.038,-0.601 0.104,-0.976c0.145,0.05 0.295,0.099 0.455,0.145c0.217,0.063 0.422,0.113 0.613,0.155c-0.138,0.35 -0.283,0.644 -0.417,0.883zM27.023,8.146c-0.198,-0.042 -0.41,-0.092 -0.637,-0.157c-0.168,-0.049 -0.324,-0.102 -0.475,-0.152c0.041,-0.2 0.094,-0.413 0.158,-0.639c0.052,-0.173 0.104,-0.332 0.156,-0.485c0.17,0.038 0.346,0.083 0.531,0.136c0.213,0.063 0.405,0.126 0.588,0.192c-0.037,0.167 -0.082,0.342 -0.135,0.529c-0.057,0.207 -0.119,0.396 -0.186,0.576zM26.829,6.606c-0.179,-0.052 -0.351,-0.095 -0.515,-0.133c0.147,-0.384 0.303,-0.696 0.447,-0.945c0.096,0.023 0.195,0.048 0.297,0.078c0.166,0.047 0.314,0.099 0.459,0.151c-0.009,0.285 -0.043,0.63 -0.119,1.031c-0.173,-0.062 -0.365,-0.124 -0.569,-0.182zM26.064,6.418c-0.391,-0.077 -0.731,-0.117 -1.025,-0.132c0.148,-0.375 0.314,-0.676 0.475,-0.916c0.278,0 0.607,0.026 0.986,0.102c-0.143,0.257 -0.292,0.57 -0.436,0.946zM25.852,10.125c-0.026,-0.103 -0.086,-0.372 -0.094,-0.796c0.076,0.024 0.153,0.05 0.236,0.073c0.131,0.037 0.256,0.068 0.378,0.098c-0.216,0.335 -0.399,0.536 -0.497,0.629c-0.008,-0.001 -0.018,-0.003 -0.023,-0.004zM26.994,10.186c-0.27,0.04 -0.546,0.042 -0.824,0.002c0.122,-0.133 0.288,-0.34 0.469,-0.635c0.338,0.063 0.637,0.086 0.898,0.088c-0.258,0.332 -0.475,0.496 -0.543,0.545zM27.525,10.05c0.102,-0.11 0.217,-0.25 0.336,-0.419c0.203,-0.016 0.379,-0.042 0.522,-0.072c-0.253,0.212 -0.545,0.379 -0.858,0.491zM28.766,9.174c-0.068,0.032 -0.314,0.135 -0.729,0.186c0.133,-0.224 0.268,-0.492 0.389,-0.808c0.352,-0.006 0.604,-0.049 0.762,-0.086c-0.108,0.258 -0.25,0.498 -0.422,0.708zM29.25,6.488c-0.102,-0.097 -0.229,-0.204 -0.387,-0.318c-0.01,-0.196 -0.029,-0.367 -0.057,-0.511c0.192,0.249 0.342,0.53 0.444,0.829zM28.867,6.494c0.32,0.254 0.471,0.464 0.506,0.518c0.04,0.291 0.035,0.594 -0.021,0.894c-0.117,-0.118 -0.311,-0.283 -0.598,-0.467c0.071,-0.356 0.105,-0.671 0.113,-0.945zM28.691,7.705c0.322,0.214 0.496,0.393 0.57,0.475c-0.063,0.022 -0.31,0.097 -0.742,0.114c0.037,-0.106 0.071,-0.216 0.104,-0.329c0.027,-0.09 0.049,-0.175 0.068,-0.26zM28.424,5.254c0.038,0.084 0.133,0.333 0.174,0.74c-0.229,-0.14 -0.496,-0.28 -0.822,-0.409c-0.002,-0.363 -0.045,-0.627 -0.082,-0.79c0.27,0.116 0.516,0.272 0.73,0.459zM27.77,5.856c0.344,0.146 0.623,0.302 0.848,0.452c0.003,0.277 -0.021,0.607 -0.094,0.99c-0.238,-0.138 -0.531,-0.281 -0.881,-0.419c0.078,-0.391 0.113,-0.731 0.127,-1.023zM28.469,7.562c-0.025,0.106 -0.054,0.217 -0.086,0.332c-0.041,0.143 -0.087,0.274 -0.131,0.401c-0.273,-0.004 -0.598,-0.033 -0.979,-0.1c0.062,-0.174 0.123,-0.355 0.182,-0.555c0.051,-0.179 0.095,-0.347 0.131,-0.508c0.355,0.144 0.648,0.292 0.883,0.43zM27.402,4.697c0.021,0.065 0.102,0.328 0.115,0.791c-0.125,-0.044 -0.252,-0.087 -0.39,-0.125c-0.077,-0.022 -0.151,-0.041 -0.228,-0.061c0.228,-0.343 0.417,-0.529 0.503,-0.605zM26.242,4.581c0.287,-0.034 0.583,-0.024 0.879,0.036c-0.122,0.123 -0.295,0.324 -0.484,0.625c-0.353,-0.074 -0.666,-0.111 -0.943,-0.121c0.288,-0.369 0.521,-0.522 0.548,-0.54zM25.727,4.693c-0.104,0.107 -0.225,0.25 -0.35,0.426c-0.223,0.008 -0.41,0.031 -0.566,0.06c0.272,-0.217 0.584,-0.382 0.916,-0.486zM24.422,5.552c0.102,-0.043 0.365,-0.135 0.782,-0.17c-0.147,0.243 -0.297,0.539 -0.431,0.895c-0.375,-0.004 -0.651,0.03 -0.83,0.066c0.119,-0.294 0.282,-0.56 0.479,-0.791zM23.85,6.625c0.116,-0.03 0.396,-0.088 0.83,-0.092c-0.031,0.095 -0.062,0.192 -0.095,0.297c-0.033,0.118 -0.062,0.232 -0.089,0.344c-0.346,-0.218 -0.555,-0.405 -0.657,-0.51c0.003,-0.014 0.007,-0.027 0.011,-0.039zM23.777,6.955c0.141,0.126 0.355,0.295 0.662,0.483c-0.063,0.334 -0.094,0.632 -0.101,0.895c-0.354,-0.271 -0.524,-0.499 -0.569,-0.567c-0.037,-0.264 -0.035,-0.537 0.008,-0.811zM24.346,8.651c0.014,0.227 0.041,0.417 0.072,0.571c-0.234,-0.276 -0.412,-0.594 -0.525,-0.936c0.115,0.11 0.264,0.235 0.453,0.365z"></path><path d="M7.59,10c-0.745,0.321 -1.203,1.035 -1.234,1.797c-0.002,0.006 -0.005,0.009 -0.006,0.012l0.006,0.003c-0.012,0.289 0.041,0.586 0.163,0.87c0.019,0.042 0.038,0.082 0.058,0.123c0.483,0.948 1.631,1.374 2.623,0.948c1.035,-0.443 1.516,-1.646 1.072,-2.68c-0.444,-1.035 -1.647,-1.516 -2.682,-1.073zM8.729,11.167c-0.125,-0.234 -0.247,-0.424 -0.363,-0.579c0.237,-0.069 0.446,-0.107 0.623,-0.122c0.119,0.14 0.246,0.32 0.369,0.546c-0.18,0.03 -0.39,0.079 -0.629,0.155zM8.8,11.701c0.057,0.132 0.103,0.254 0.146,0.374c-0.12,0.063 -0.249,0.126 -0.392,0.187c-0.108,0.046 -0.21,0.086 -0.31,0.12c-0.062,-0.12 -0.123,-0.249 -0.186,-0.394c-0.046,-0.108 -0.086,-0.213 -0.124,-0.313c0.103,-0.051 0.212,-0.104 0.331,-0.156c0.133,-0.057 0.26,-0.104 0.381,-0.146c0.051,0.101 0.102,0.21 0.154,0.328zM8.566,11.221c-0.116,0.041 -0.238,0.089 -0.367,0.145c-0.115,0.05 -0.22,0.099 -0.32,0.149c-0.085,-0.259 -0.138,-0.484 -0.167,-0.674c0.059,-0.028 0.12,-0.056 0.185,-0.084c0.103,-0.043 0.203,-0.081 0.298,-0.112c0.117,0.148 0.243,0.339 0.371,0.576zM7.904,12.054c0.06,0.139 0.121,0.267 0.182,0.385c-0.255,0.084 -0.479,0.139 -0.67,0.172c-0.041,-0.081 -0.081,-0.162 -0.12,-0.254c-0.035,-0.081 -0.064,-0.16 -0.093,-0.235c0.152,-0.117 0.348,-0.242 0.581,-0.37c0.035,0.099 0.075,0.198 0.12,0.302zM8.165,12.589c0.119,0.217 0.236,0.399 0.348,0.546c-0.25,0.081 -0.472,0.126 -0.66,0.147c-0.113,-0.135 -0.235,-0.303 -0.354,-0.515c0.192,-0.037 0.415,-0.092 0.666,-0.178zM8.325,12.531c0.096,-0.034 0.191,-0.071 0.294,-0.115c0.139,-0.061 0.264,-0.119 0.379,-0.179c0.077,0.237 0.125,0.448 0.156,0.629c-0.086,0.045 -0.178,0.09 -0.276,0.131c-0.067,0.029 -0.134,0.056 -0.197,0.081c-0.113,-0.147 -0.233,-0.326 -0.356,-0.547zM8.954,11.634c-0.049,-0.113 -0.098,-0.217 -0.147,-0.314c0.244,-0.077 0.456,-0.125 0.634,-0.151c0.032,0.065 0.063,0.136 0.095,0.207c0.039,0.091 0.071,0.178 0.101,0.261c-0.141,0.111 -0.319,0.233 -0.542,0.359c-0.042,-0.116 -0.087,-0.236 -0.141,-0.362zM9.616,11.148c0.253,-0.025 0.418,-0.008 0.491,0.006c-0.023,0.037 -0.119,0.177 -0.334,0.367c-0.025,-0.067 -0.054,-0.138 -0.083,-0.211c-0.025,-0.056 -0.049,-0.109 -0.074,-0.162zM10.038,10.976c-0.111,-0.012 -0.279,-0.015 -0.503,0.011c-0.113,-0.213 -0.227,-0.39 -0.339,-0.532c0.271,-0.003 0.437,0.04 0.478,0.053c0.141,0.131 0.266,0.289 0.364,0.468zM9.391,10.292c-0.095,-0.008 -0.203,-0.01 -0.331,-0.001c-0.087,-0.098 -0.171,-0.176 -0.247,-0.239c0.205,0.045 0.4,0.127 0.578,0.24zM8.448,10.004c0.055,0.028 0.208,0.116 0.4,0.307c-0.175,0.023 -0.372,0.064 -0.594,0.136c-0.153,-0.187 -0.283,-0.303 -0.373,-0.372c0.189,-0.053 0.379,-0.075 0.567,-0.071zM7.691,10.148c0.039,0.023 0.189,0.125 0.392,0.356c-0.083,0.03 -0.165,0.063 -0.252,0.099c-0.05,0.023 -0.096,0.044 -0.143,0.066c-0.027,-0.272 -0.008,-0.447 0.003,-0.521zM7.727,11.592c-0.232,0.124 -0.423,0.245 -0.581,0.36c-0.081,-0.253 -0.122,-0.477 -0.141,-0.667c0.142,-0.117 0.321,-0.241 0.55,-0.363c0.033,0.193 0.087,0.416 0.172,0.67zM7.048,10.576c0.134,-0.139 0.288,-0.258 0.465,-0.352c-0.011,0.114 -0.014,0.291 0.015,0.523c-0.213,0.11 -0.39,0.224 -0.535,0.335c-0.007,-0.311 0.048,-0.488 0.055,-0.506zM6.829,10.847c-0.008,0.102 -0.009,0.224 -0.001,0.367c-0.109,0.096 -0.195,0.188 -0.264,0.27c0.049,-0.227 0.139,-0.442 0.265,-0.637zM6.521,11.838c0.035,-0.066 0.13,-0.222 0.33,-0.414c0.026,0.186 0.074,0.399 0.154,0.638c-0.193,0.155 -0.321,0.289 -0.397,0.383c-0.062,-0.2 -0.091,-0.406 -0.087,-0.607zM6.678,12.628c0.047,-0.064 0.166,-0.212 0.387,-0.396c0.024,0.063 0.048,0.125 0.077,0.19c0.032,0.075 0.065,0.146 0.1,0.215c-0.269,0.034 -0.455,0.024 -0.553,0.013c-0.003,-0.005 -0.007,-0.015 -0.011,-0.022zM6.779,12.827c0.126,0.006 0.308,0.003 0.542,-0.03c0.108,0.197 0.219,0.363 0.326,0.5c-0.297,0.012 -0.479,-0.035 -0.531,-0.051c-0.13,-0.121 -0.244,-0.262 -0.337,-0.419zM7.397,13.462c0.106,0.008 0.234,0.009 0.387,-0.004c0.1,0.113 0.195,0.198 0.276,0.263c-0.236,-0.044 -0.459,-0.131 -0.663,-0.259zM8.408,13.75l0.001,-0.004c-0.003,0 -0.18,-0.077 -0.415,-0.313c0.184,-0.026 0.395,-0.079 0.627,-0.156c0.15,0.183 0.282,0.305 0.371,0.377c-0.192,0.064 -0.389,0.096 -0.584,0.096zM9.188,13.574c-0.004,0.003 -0.01,0.005 -0.013,0.008c-0.058,-0.042 -0.202,-0.154 -0.384,-0.369c0.051,-0.02 0.101,-0.039 0.153,-0.062c0.082,-0.035 0.16,-0.071 0.233,-0.108c0.031,0.263 0.02,0.443 0.011,0.531zM9.15,12.158c0.219,-0.122 0.398,-0.239 0.543,-0.351c0.07,0.229 0.11,0.435 0.128,0.61c-0.131,0.118 -0.301,0.241 -0.512,0.363c-0.033,-0.181 -0.082,-0.39 -0.159,-0.622zM9.786,13.133c-0.122,0.134 -0.262,0.25 -0.423,0.347c0.008,-0.12 0.006,-0.294 -0.025,-0.522c0.199,-0.108 0.361,-0.223 0.498,-0.333c0.007,0.28 -0.035,0.455 -0.05,0.508zM10.002,12.841c0.006,-0.099 0.006,-0.219 -0.005,-0.357c0.1,-0.092 0.177,-0.179 0.239,-0.255c-0.043,0.216 -0.124,0.423 -0.234,0.612zM9.975,12.271c-0.026,-0.171 -0.07,-0.363 -0.141,-0.577c0.179,-0.15 0.289,-0.278 0.354,-0.363c0.055,0.179 0.082,0.36 0.082,0.54c-0.023,0.047 -0.106,0.201 -0.295,0.4z"></path><path d="M17.75,3.174l0.066,-0.059l0.031,0.015l0.088,-0.107l-0.044,-0.013l-0.076,0.098l-0.004,-0.041l-0.031,-0.011l-0.07,0.091l0.004,-0.151l0.071,-0.095h0.091l0.062,-0.069l-0.008,-0.077l0.039,-0.02l0.012,0.104c0,0 -0.062,0.085 -0.06,0.081c0.004,-0.004 0.062,0.036 0.062,0.036l0.074,-0.104l-0.018,-0.032l0.05,-0.073l-0.034,-0.039l-0.037,0.035l-0.023,-0.04l0.013,-0.039l0.091,-0.104l0.006,0.102l0.049,0.02l0.059,-0.055l-0.078,-0.055l0.018,-0.082l0.068,-0.117l0.186,-0.104l0.058,0.044l0.05,-0.041l0.026,0.06l-0.054,0.07l0.035,0.06l-0.158,0.134l0.031,-0.177l-0.08,0.017l-0.068,0.118l0.002,0.017l0.001,0.005l0.007,0.056l-0.035,0.053l0.025,0.015l0.021,-0.012l0.008,0.007l-0.026,0.045l0.021,0.021l-0.029,0.041l-0.053,-0.028l-0.033,0.09l-0.029,0.211l0.072,0.028l0.057,-0.022l0.074,-0.073l0.091,0.068l0.022,-0.043l-0.043,-0.089l0.039,-0.108l-0.109,-0.083l0.002,-0.076l0.118,-0.098l0.063,0.063l0.025,-0.032l0.023,-0.117l0.099,0.067l0.084,-0.035l0.056,0.045l-0.024,0.076l0.021,0.009l0.088,-0.047l0.038,0.03l-0.014,0.022h-0.002l-0.099,0.071l-0.031,-0.019l0.002,-0.04l-0.024,-0.02l-0.03,0.022l0.02,0.027l-0.03,0.055l-0.005,0.005l0.002,0.002l-0.012,0.019l-0.038,-0.007l-0.021,0.012l-0.027,0.037v0.025l0.031,0.021l0.031,-0.021l0.028,-0.028l-0.004,0.012l0.009,0.051l-0.023,0.001l-0.027,0.021l0.01,0.125l0.016,-0.004l-0.024,0.151l0.024,0.182l0.04,0.04l-0.014,0.152l0.012,0.088l0.103,0.068l-0.087,0.047l-0.057,-0.044l-0.148,0.195l-0.027,0.14l0.045,0.104l0.048,0.065l0.082,0.016l0.069,-0.071l0.015,-0.189l0.051,0.021l0.039,0.092l0.09,-0.087l0.152,0.102l0.121,-0.115l-0.027,-0.156l0.097,-0.087l0.075,0.001l0.068,-0.103l-0.025,-0.024l0.066,-0.033l0.137,0.01l0.08,-0.107l0.096,0.01l0.084,0.058l0.132,-0.084l0.11,-0.146l0.102,0.008l0.069,-0.049l0.047,0.054l0.032,0.139l0.177,0.166l0.001,0.102l-0.075,0.094l0.028,0.071l0.119,0.055l0.049,0.199l0.033,0.078l-0.029,0.133l-0.04,0.073l0.024,0.021l0.047,-0.036l0.025,0.028l0.006,0.068h0.049l0.039,-0.048l0.035,0.03l0.024,0.04l0.026,0.026l0.113,-0.028l0.024,0.034l-0.077,0.097l-0.159,0.035l-0.187,-0.021l-0.114,-0.107l-0.119,0.002l-0.107,-0.12l-0.035,0.027l-0.274,-0.208c0,0 -0.146,0.041 -0.149,0.047c-0.004,0.006 -0.051,0.043 -0.051,0.043l-0.058,-0.03l-0.248,0.011l-0.045,-0.054l-0.087,-0.072l0.008,-0.131l-0.109,-0.065l-0.106,0.12l-0.185,0.017l-0.074,0.055l-0.041,0.04l-0.034,-0.036l-0.056,0.052l0.021,0.017l-0.144,0.118l-0.131,-0.006l-0.023,-0.056l-0.199,-0.007l-0.105,-0.057l-0.029,0.037l0.104,0.058l0.144,0.009l0.03,0.034l-0.049,0.05l-0.158,-0.019l-0.127,-0.096l-0.087,0.045l-0.09,-0.069c0.129,0.231 0.305,0.44 0.525,0.608c0.884,0.672 2.17,0.475 2.865,-0.439c0.394,-0.519 0.517,-1.158 0.388,-1.738l-0.042,0.056l-0.107,-0.082l-0.129,0.002l-0.129,-0.099l-0.083,0.013l-0.058,-0.035l-0.066,-0.148l-0.285,-0.036l-0.125,-0.114l-0.091,0.095l-0.067,0.011l-0.053,0.07l0.006,0.062l-0.097,0.123l0.009,0.013l-0.053,0.068l-0.295,0.027l-0.135,-0.105l0.01,-0.034l-0.044,-0.049l-0.028,0.037l-0.064,-0.025l0.011,-0.282l-0.09,-0.068l0.021,-0.126l0.03,-0.033l0.058,-0.073l0.014,-0.08l0.127,-0.198l0.09,0.068l0.148,-0.121l0.039,-0.012l0.021,-0.027l-0.049,-0.039l0.056,-0.09l0.121,-0.037l0.1,-0.132v-0.017c-0.054,-0.019 -0.106,-0.037 -0.162,-0.052l-0.064,0.089l-0.08,0.007l-0.08,-0.047l-0.011,0.062l0.072,0.092l-0.114,0.014l-0.063,-0.043l-0.099,0.023l-0.041,0.006l-0.056,0.071l0.078,0.025l0.113,-0.052l0.027,-0.003l-0.005,0.025l0.049,0.036l-0.015,0.056l-0.034,0.03h-0.05l0.049,-0.057l-0.01,-0.033l-0.18,0.066l-0.044,-0.019l0.007,0.089l-0.053,0.045l0.041,0.158l0.025,0.047l-0.033,0.055l-0.057,0.08l-0.056,0.029l-0.099,-0.053l-0.029,-0.049l0.044,-0.091l0.081,-0.072l-0.037,-0.046l-0.036,0.03l-0.061,-0.065l0.053,-0.098l-0.037,-0.121l0.038,-0.07l0.05,-0.049l0.017,-0.021l-0.085,-0.048l-0.025,0.089l-0.077,-0.02l-0.035,0.035l-0.045,-0.023l-0.01,-0.057l0.029,-0.1l-0.02,-0.045c-0.471,0.102 -0.914,0.372 -1.233,0.79c-0.276,0.366 -0.421,0.789 -0.435,1.209l0.062,-0.083zM18.74,2.996l-0.021,-0.021l-0.006,-0.028l0.03,-0.009l0.021,0.021zM18.814,2.879l-0.021,0.032c-0.008,-0.006 -0.015,-0.01 -0.015,-0.01l-0.008,0.013l-0.02,-0.018l0.037,-0.047l-0.017,-0.029l0.015,-0.02l0.021,-0.018l0.012,0.022l-0.018,0.025l0.019,0.022zM19.314,1.894l-0.029,0.038l-0.032,-0.025l-0.026,-0.071l0.024,-0.053l0.038,-0.021l0.031,0.028zM19.242,1.646l0.072,0.034l0.067,0.006l0.036,-0.004l0.039,-0.024l0.014,0.061l-0.043,0.07l-0.037,0.048l-0.05,-0.047l0.021,-0.048l-0.028,-0.016l-0.05,0.019l-0.036,0.015l-0.024,-0.02l-0.014,-0.033z"></path><path d="M6.577,7.949c1.504,0 2.809,-0.86 3.452,-2.114c0.138,-0.269 0.244,-0.556 0.316,-0.854c0.019,-0.075 0.035,-0.152 0.049,-0.23c0.039,-0.22 0.06,-0.445 0.06,-0.678c0,-0.012 0,-0.026 -0.001,-0.039c-0.001,-0.114 -0.007,-0.228 -0.017,-0.337c-0.036,-0.37 -0.124,-0.727 -0.256,-1.057h0.003l-0.012,-0.065l-0.021,-0.009c-0.176,-0.418 -0.425,-0.795 -0.727,-1.124c-0.021,-0.021 -0.04,-0.042 -0.061,-0.063c-0.058,-0.06 -0.116,-0.118 -0.179,-0.173c-0.687,-0.627 -1.603,-1.011 -2.606,-1.011c-1.011,0 -1.933,0.39 -2.624,1.027c-0.161,0.15 -0.31,0.311 -0.443,0.485c-0.506,0.655 -0.81,1.475 -0.81,2.365c0,2.138 1.739,3.877 3.877,3.877zM3.305,2.679v0.203l0.148,0.07v0.283l0.14,0.241l0.115,0.019l0.017,-0.083l-0.138,-0.21l-0.026,-0.204h0.08l0.034,0.21l0.197,0.287l-0.051,0.093l0.124,0.19l0.311,0.078v-0.052l0.123,0.019l-0.01,0.087l0.096,0.019l0.152,0.042l0.213,0.242l0.271,0.021l0.025,0.223l-0.185,0.13l-0.007,0.197l-0.028,0.122l0.269,0.336l0.021,0.115c0,0 0.098,0.026 0.109,0.026c0.011,0 0.218,0.157 0.218,0.157v0.609l0.075,0.021l-0.051,0.281l0.124,0.166l-0.022,0.279l0.163,0.288l0.212,0.184l0.212,0.005l0.02,-0.066l-0.155,-0.133l0.009,-0.065l0.028,-0.081l0.005,-0.083l-0.105,-0.002l-0.052,-0.066l0.086,-0.084l0.014,-0.064l-0.099,-0.027l0.005,-0.06l0.141,-0.021l0.21,-0.103l0.071,-0.129l0.223,-0.284l-0.051,-0.222l0.068,-0.118l0.203,0.006l0.137,-0.108l0.044,-0.428l0.153,-0.194l0.027,-0.123l-0.14,-0.046l-0.09,-0.15l-0.314,-0.003l-0.248,-0.096l-0.012,-0.176l-0.082,-0.146l-0.226,-0.002l-0.129,-0.204l-0.116,-0.057l-0.006,0.064l-0.21,0.012l-0.075,-0.108l-0.22,-0.044l-0.181,0.208l-0.284,-0.048l-0.02,-0.32l-0.207,-0.036l0.082,-0.157l-0.023,-0.09l-0.272,0.183l-0.172,-0.021l-0.06,-0.134l0.037,-0.137l0.094,-0.175l0.218,-0.109h0.418v0.129l0.15,0.069l-0.011,-0.22l0.109,-0.107l0.219,-0.145l0.015,-0.102l0.22,-0.228l0.23,-0.129l-0.02,-0.018l0.158,-0.146l0.059,0.015l0.026,0.033l0.06,-0.065l0.015,-0.009l-0.067,-0.009l-0.066,-0.021v-0.065l0.035,-0.028h0.078l0.036,0.015l0.031,0.061l0.036,-0.005v-0.005l0.013,0.003l0.108,-0.016l0.016,-0.053l0.061,0.015v0.057l-0.057,0.041l0.008,0.062l0.198,0.062l0.001,0.003l0.045,-0.005l0.003,-0.085l-0.158,-0.072l-0.008,-0.041l0.131,-0.044l0.005,-0.125l-0.136,-0.082l-0.009,-0.21l-0.187,0.09h-0.067l0.018,-0.158l-0.253,-0.06l-0.106,0.078v0.242l-0.189,0.06l-0.075,0.158l-0.082,0.014v-0.203l-0.177,-0.023l-0.087,-0.058l-0.037,-0.13l0.317,-0.187l0.156,-0.047l0.015,0.106l0.087,-0.007l0.007,-0.052l0.091,-0.013l0.001,-0.019l-0.04,-0.016l-0.01,-0.053l0.112,-0.01l0.067,-0.07l0.003,-0.006v0l0.021,-0.02l0.233,-0.029l0.104,0.087l-0.269,0.143l0.345,0.082l0.045,-0.115h0.15l0.053,-0.1l-0.106,-0.028v-0.126l-0.336,-0.147l-0.229,0.026l-0.131,0.068l0.01,0.165l-0.136,-0.021l-0.021,-0.091l0.131,-0.117l-0.238,-0.013l-0.067,0.02l-0.03,0.081l0.089,0.015l-0.017,0.088l-0.151,0.01l-0.024,0.057l-0.22,0.007c0,0 -0.005,-0.124 -0.014,-0.124c-0.009,0 0.171,-0.003 0.171,-0.003l0.131,-0.127l-0.072,-0.036l-0.094,0.091l-0.157,-0.007l-0.095,-0.132h-0.201l-0.21,0.157h0.192l0.018,0.057l-0.051,0.047l0.214,0.007l0.033,0.076l-0.241,-0.01l-0.012,-0.058l-0.15,-0.033l-0.079,-0.045l-0.18,0.001c0.587,-0.427 1.309,-0.681 2.09,-0.681c0.9,0 1.722,0.337 2.35,0.889l-0.043,0.076l-0.164,0.064l-0.07,0.075l0.017,0.089l0.085,0.01l0.051,0.128l0.146,-0.058l0.023,0.171h-0.042l-0.121,-0.019l-0.133,0.023l-0.129,0.18l-0.185,0.03l-0.026,0.158l0.078,0.018l-0.021,0.101l-0.185,-0.036l-0.167,0.036l-0.036,0.094l0.029,0.195l0.099,0.046l0.165,-0.001l0.111,-0.01l0.036,-0.089l0.172,-0.227l0.116,0.024l0.112,-0.104l0.021,0.081l0.277,0.187l-0.032,0.048l-0.126,-0.006l0.048,0.067l0.078,0.017l0.089,-0.038l-0.002,-0.108l0.04,-0.021l-0.031,-0.034l-0.186,-0.103l-0.048,-0.137h0.154l0.048,0.048l0.135,0.115l0.005,0.14l0.137,0.145l0.051,-0.2l0.095,-0.053l0.019,0.164l0.092,0.103l0.187,-0.003c0.036,0.091 0.067,0.187 0.097,0.28l-0.021,0.02h-0.284l-0.174,-0.13l-0.182,0.018v0.112h-0.058l-0.062,-0.045l-0.315,-0.08v-0.205l-0.399,0.033l-0.124,0.066h-0.159l-0.077,-0.009l-0.193,0.109v0.201l-0.392,0.282l0.032,0.122h0.079l-0.02,0.115l-0.058,0.02l-0.001,0.302l0.339,0.388h0.149l0.008,-0.023h0.267l0.077,-0.071h0.15l0.083,0.084l0.225,0.023l-0.029,0.296l0.25,0.442l-0.133,0.25l0.009,0.119l0.104,0.103v0.283l0.138,0.185v0.235h0.117c-0.655,0.803 -1.65,1.317 -2.762,1.317c-1.961,0 -3.558,-1.597 -3.558,-3.559c0.001,-0.492 0.102,-0.964 0.286,-1.393z"></path></g></g></g></g></g></svg>