<svg version="1.1" xmlns="http://www.w3.org/2000/svg" xmlns:xlink="http://www.w3.org/1999/xlink" width="800px" height="800px" viewBox="0,0,256,256"><g fill="none" fill-rule="nonzero" stroke="none" stroke-width="1" stroke-linecap="butt" stroke-linejoin="miter" stroke-miterlimit="10" stroke-dasharray="" stroke-dashoffset="0" font-family="none" font-weight="none" font-size="none" text-anchor="none" style="mix-blend-mode: normal"><g><g><g><g transform="translate(12.8,12.8) scale(0.9,0.9)"><g fill="#ffffff"><path d="M-14.22222,270.22222v-284.44444h284.44444v284.44444z" id="bgRectangle"></path></g><g><g transform="scale(0.25,0.25)"><circle cx="512" cy="512" r="512" fill="#37c3bf"></circle><path d="M689.43,349c-33.19576,-15.236 -68.22825,-26.10004 -104.22,-32.32c-0.67197,-0.12812 -1.35007,0.19075 -1.68,0.79c-4.77897,8.66237 -9.11782,17.56034 -13,26.66c-38.79425,-5.8917 -78.25575,-5.8917 -117.05,0c-3.89974,-9.12227 -8.29976,-18.02246 -13.18,-26.66c-0.34271,-0.58545 -1.01051,-0.89948 -1.68,-0.79c-35.98129,6.20999 -71.00182,17.0745 -104.18,32.32c-0.28577,0.1201 -0.52697,0.32635 -0.69,0.59c-66.37,99.17 -84.55,195.9 -75.63,291.41c0.05147,0.47427 0.29326,0.90733 0.67,1.2c38.64834,28.62936 81.88026,50.48371 127.85,64.63c0.66434,0.19856 1.3821,-0.03671 1.8,-0.59c9.87055,-13.43751 18.61682,-27.66567 26.15,-42.54c0.20791,-0.41281 0.22959,-0.89478 0.05958,-1.32459c-0.17001,-0.42981 -0.51553,-0.76653 -0.94958,-0.92541c-13.79416,-5.26875 -27.14926,-11.62195 -39.94,-19c-0.47143,-0.27728 -0.77361,-0.77132 -0.80573,-1.31731c-0.03212,-0.54599 0.21006,-1.07205 0.64573,-1.40269c2.68,-2 5.37,-4.1 7.93,-6.22c0.46365,-0.3806 1.10283,-0.46583 1.65,-0.22c83.79,38.26 174.51,38.26 257.31,0c0.55152,-0.26403 1.20588,-0.18613 1.68,0.2c2.56,2.11 5.25,4.23 8,6.24c0.43761,0.32749 0.6833,0.85147 0.6552,1.39733c-0.0281,0.54586 -0.32629,1.04184 -0.7952,1.32267c-12.77408,7.44924 -26.15506,13.8052 -40,19c-0.43662,0.16452 -0.7818,0.50827 -0.94814,0.9442c-0.16634,0.43593 -0.13789,0.92224 0.07814,1.3358c7.65887,14.79304 16.39229,29.00448 26.13,42.52c0.40517,0.5709 1.13122,0.81695 1.8,0.61c46.03256,-14.10504 89.32055,-35.96209 128,-64.63c0.38321,-0.27816 0.62749,-0.70839 0.67,-1.18c10.68,-110.44 -17.88,-206.38 -75.7,-291.42c-0.12924,-0.27765 -0.35235,-0.50076 -0.63,-0.63zM427.09,582.85c-25.23,0 -46,-23.16 -46,-51.6c0,-28.44 20.38,-51.6 46,-51.6c25.83,0 46.42,23.36 46,51.6c0.02,28.44 -20.37,51.6 -46,51.6zM597.22,582.85c-25.23,0 -46,-23.16 -46,-51.6c0,-28.44 20.38,-51.6 46,-51.6c25.83,0 46.42,23.36 46,51.6c0.01,28.44 -20.17,51.6 -46,51.6z" fill="#ffffff"></path></g></g></g></g></g></g></g></svg>