<svg version="1.1" xmlns="http://www.w3.org/2000/svg" xmlns:xlink="http://www.w3.org/1999/xlink" width="800px" height="800px" viewBox="0,0,256,256"><g transform="translate(12.8,12.8) scale(0.9,0.9)"><g fill="#ffffff" fill-rule="nonzero" stroke="none" stroke-width="1" stroke-linecap="butt" stroke-linejoin="miter" stroke-miterlimit="10" stroke-dasharray="" stroke-dashoffset="0" font-family="none" font-weight="none" font-size="none" text-anchor="none" style="mix-blend-mode: normal"><path d="M-14.22222,270.22222v-284.44444h284.44444v284.44444z" id="bgRectangle"></path></g><g fill="none" fill-rule="nonzero" stroke="#37c3bf" stroke-width="0.32" stroke-linecap="butt" stroke-linejoin="miter" stroke-miterlimit="10" stroke-dasharray="" stroke-dashoffset="0" font-family="none" font-weight="none" font-size="none" text-anchor="none" style="mix-blend-mode: normal"><path d="M56.99673,270.00655c-39.21403,0 -71.00327,-31.78925 -71.00327,-71.00327v-142.00655c0,-39.21403 31.78925,-71.00327 71.00327,-71.00327h142.00655c39.21403,0 71.00327,31.78925 71.00327,71.00327v142.00655c0,39.21403 -31.78925,71.00327 -71.00327,71.00327z" id="shape"></path></g><g fill="#37c3bf" fill-rule="nonzero" stroke="none" stroke-width="1" stroke-linecap="butt" stroke-linejoin="miter" stroke-miterlimit="10" stroke-dasharray="" stroke-dashoffset="0" font-family="none" font-weight="none" font-size="none" text-anchor="none" style="mix-blend-mode: normal"><g transform="translate(0,-0.00043) scale(0.8678,0.8678)"><g><path d="M40.703,15l-2.264,8h4.633l-2.279,-8z"></path><path d="M46.5,62.191c0,-19.85 16.912,-36.191 36.763,-36.191h64.237v-5.667c0,-11 -8.667,-20.333 -19.667,-20.333h-86.429c-11,0 -19.904,9.333 -19.904,20.333v128.572c0,11 8.904,20.095 19.904,20.095h5.096zM37.314,27l-1.229,4h-5.099l7.048,-21h5.443l7.062,21h-5.098l-1.244,-4z"></path><path d="M83.263,211h6.237v-106.097c0,-19.85 16.624,-35.903 36.475,-35.903h63.525v-6.809c0,-11 -8.809,-20.191 -19.809,-20.191h-86.428c-11,0 -20.763,9.191 -20.763,20.191v128.572c0,11.001 9.763,20.237 20.763,20.237zM79.893,51h5.443l7.062,22h-5.098l-1.244,-4h-6.883l-1.229,4h-5.099z"></path><path d="M82.651,57h-0.09l-2.263,8h4.633z"></path><path d="M125.975,253h5.525v-106.238c0,-19.851 16.482,-35.762 36.333,-35.762h64.667v-6.097c0,-11 -9.097,-19.903 -20.097,-19.903h-86.429c-11,0 -20.475,8.903 -20.475,19.903v128.572c0.001,11.001 9.476,19.525 20.476,19.525zM122.604,94h5.443l7.062,22h-5.098l-1.244,-4h-6.883l-1.229,4h-5.099z"></path><path d="M125.363,100h-0.09l-2.263,8h4.633z"></path><path d="M254.262,127h-0.429h-86c-11,0 -20.333,8.762 -20.333,19.762v2.144v126.429c0,11 9.333,19.666 20.333,19.666h86.429c11,0 19.238,-8.666 19.238,-19.666v-128.573c0,-11 -8.238,-19.762 -19.238,-19.762zM211.025,179.134c9.172,0 16.609,7.438 16.609,16.611c0,0.686 -0.055,1.36 -0.136,2.024c7.318,1.736 12.769,8.296 12.769,16.145c0,9.174 -7.436,16.609 -16.609,16.609c-2.972,0 -5.755,-0.79 -8.168,-2.157l1.096,14.634h-10.814l1.106,-14.799c-2.476,1.467 -5.354,2.323 -8.44,2.323c-9.174,0 -16.609,-7.436 -16.609,-16.609c0,-7.833 5.428,-14.382 12.724,-16.134c-0.082,-0.668 -0.138,-1.346 -0.138,-2.036c-0.001,-9.174 7.437,-16.611 16.61,-16.611zM164.463,136h5.443l7.062,22h-5.098l-1.244,-4h-6.883l-1.23,4h-5.099z"></path><path d="M167.222,142h-0.09l-2.264,8h4.633z"></path></g></g></g></g></svg>