<svg version="1.1" xmlns="http://www.w3.org/2000/svg" xmlns:xlink="http://www.w3.org/1999/xlink" width="800px" height="800px" viewBox="0,0,256,256"><g transform="translate(12.8,12.8) scale(0.9,0.9)"><g fill="#ffffff" fill-rule="nonzero" stroke="none" stroke-width="1" stroke-linecap="butt" stroke-linejoin="miter" stroke-miterlimit="10" stroke-dasharray="" stroke-dashoffset="0" font-family="none" font-weight="none" font-size="none" text-anchor="none" style="mix-blend-mode: normal"><path d="M-14.22222,270.22222v-284.44444h284.44444v284.44444z" id="bgRectangle"></path></g><g fill="none" fill-rule="nonzero" stroke="none" stroke-width="none" stroke-linecap="butt" stroke-linejoin="none" stroke-miterlimit="10" stroke-dasharray="" stroke-dashoffset="0" font-family="none" font-weight="none" font-size="none" text-anchor="none" style="mix-blend-mode: normal"><path transform="translate(0,44.26068)" d="M218.62145,161.61894c-3.26062,0 -6.2963,-2.07516 -7.36628,-5.34393c-1.3314,-4.06925 0.8876,-8.44856 4.95881,-9.77998c14.74877,-4.82717 24.27731,-17.75433 24.27731,-32.93499c0,-19.22558 -15.64042,-34.86828 -34.86571,-34.86828c-1.33545,0 -2.77223,0.10538 -4.52109,0.33235l-7.58109,0.98286l-1.08822,-7.56905c-4.65889,-32.45673 -32.93244,-56.93302 -65.7676,-56.93302c-27.14479,0 -51.31065,16.25066 -61.55859,41.40178l-1.92922,4.73192l-5.10675,0.09322c-23.46874,0.43165 -42.5623,19.86799 -42.5623,43.32495c0,17.12408 9.94194,32.74044 25.32703,39.78259c3.89288,1.78334 5.60526,6.38353 3.82195,10.27648c-1.78331,3.89294 -6.38141,5.6013 -10.27429,3.82404c-20.88903,-9.56112 -34.38543,-30.70987 -34.38543,-53.88311c0,-30.1546 23.23367,-55.41516 52.7454,-58.51776c13.59773,-28.43206 42.09621,-46.53901 73.92016,-46.53901c38.08985,0 71.20062,26.70547 79.78684,63.19497c27.39608,0.44381 49.5476,22.86724 49.5476,50.3671c0,21.66957 -14.05166,40.82625 -34.96298,47.66981c-0.80046,0.26142 -1.61511,0.38707 -2.41557,0.38707zM100.79164,166.14906v0.02024c-0.00202,0.35213 -0.14368,0.66985 -0.37034,0.9046c-0.00202,0.00202 -0.00405,0.00405 -0.00405,0.00405c-0.00202,0.00202 -0.00202,0.00202 -0.00202,0.00202c-0.00202,0.00202 0,0.00202 -0.00405,0.00405l-0.00202,0.00202l-0.00202,0.00202l-0.0081,0.00809c-0.00202,0.00405 -0.00405,0.00405 -0.00607,0.00607c-0.00202,0.00202 -0.00607,0.00607 -0.01012,0.01012c-0.00202,0.00202 -0.00202,0.00202 -0.00202,0.00202c-0.2307,0.22058 -0.54236,0.3582 -0.88639,0.36427h-37.42255c-0.05464,0 -0.10726,-0.00405 -0.1619,-0.01012c-4.81442,-0.12142 -8.59877,-3.96648 -8.62508,-8.67769l-0.00405,-68.14659h-5.22119c-0.57474,0 -1.08066,-0.37236 -1.25268,-0.92079c-0.16999,-0.54843 0.0344,-1.14542 0.50795,-1.47124l25.24787,-17.42621c0.44926,-0.30963 1.04221,-0.30963 1.49148,0l25.05157,17.29062c0.4776,0.1963 0.81353,0.6658 0.81353,1.21423c0,0.73461 -0.54236,1.34577 -1.33768,1.31137h-5.22119v68.1304c0.02024,3.34318 2.76237,6.07115 6.11364,6.07115h0.0344l0.00202,0.00202c0.00202,0 0.01821,0 0.01821,0c0.13357,0.00607 0.26106,0.03238 0.38046,0.07488h0.00202c0,0 0,0.00202 0.00202,0.00202l0.00405,0.00202h0.00202c0,0 0.00405,0 0.00607,0.00202c0.00202,0 0.00405,0 0.00607,0.00202h0.00202c0.00202,0 0.00202,0 0.00405,0.00202c0.00202,0 0.00607,0.00202 0.00809,0.00202c0.00202,0 0.00607,0 0.00809,0.00202l0.00202,0.00202c0.00202,0 0.00405,0.00202 0.00405,0.00202l0.00202,0.00202c0.00202,0 0.00202,0.00405 0.00405,0.00202c0.00202,0 0,0 0.00607,0.00202l0.00202,0.00202l0.00405,0.00405c0.00202,0 0.00607,0.00202 0.00607,0.00202c0,0 0.00405,0.00405 0.00202,0.00202l0.00202,0.00202h0.00202l0.00202,0.00202c0,0 0.00405,0 0.00202,0.00202l0.00202,0.00202h0.00202c0,0.00202 0.00202,0.00202 0.00202,0.00202l0.00202,0.00202l0.00202,0.00202h0.00202c0.00202,0 0.00405,0.00202 0.00607,0.00202c0.00202,0 0.00202,0 0.00405,0.00202c0.45129,0.2044 0.76496,0.65771 0.77508,1.17578zM154.90174,166.14704v0.02024c-0.00202,0.35213 -0.14368,0.66985 -0.37034,0.9046c-0.00202,0.00202 -0.00202,0.00202 -0.00202,0.00202c-0.00202,0.00202 -0.00202,0.00202 -0.00202,0.00202c-0.00202,0.00202 -0.00202,0.00202 -0.00202,0.00202c0,0.00202 0.00202,0.00202 -0.00405,0.00405c0,0 0,0.00202 -0.00202,0.00202l-0.00202,0.00202c0,0.00202 -0.00202,0.00202 -0.00202,0.00202l-0.00202,0.00202l-0.00202,0.00202l-0.00202,0.00202c-0.00202,0.00405 -0.00405,0.00405 -0.00607,0.00607c0.00202,0.00202 -0.00607,0.00607 -0.01012,0.01012c-0.00202,0.00202 -0.00202,0.00202 -0.00202,0.00202c-0.2307,0.22058 -0.54236,0.3582 -0.88639,0.36427h-37.42254c-0.05262,0 -0.10523,-0.00202 -0.15785,-0.00809c-4.81644,-0.1194 -8.60686,-3.96648 -8.62912,-8.67972l-0.00405,-52.8898h-5.1969c-0.57474,0 -1.08066,-0.37236 -1.25268,-0.92079c-0.16999,-0.54843 0.0344,-1.14542 0.50795,-1.47124l25.23775,-17.42419c0.44926,-0.30963 1.04221,-0.30963 1.49148,0l25.0536,17.29062c0.4776,0.1963 0.81353,0.6658 0.81353,1.21423c0,0.72449 -0.58688,1.31137 -1.31137,1.31137c-0.02024,-0.00202 -0.0344,-0.00202 -0.05262,0h-5.21916v52.86957c0.02024,3.34318 2.76237,6.07115 6.11162,6.07115h0.04047l0.00202,0.00202h0.01619c0.13357,0.00607 0.26106,0.03238 0.38046,0.07488h0.00202l0.00202,0.00202c0.00202,0 0.00405,0.00202 0.00405,0.00202c0.00202,0.00202 -0.00202,0.00202 0.00405,0.00202c0.00202,0 -0.00202,0 0.00405,0.00202c0.00202,0.00202 0.00405,0.00202 0.00405,0.00202c0.00202,0.00202 0.00202,0.00202 0.00405,0.00202c0.00202,0 0.00202,0 0.00405,0.00202c0.00202,0 0.00607,0.00202 0.00809,0.00202c0.00202,0 0.00607,0 0.00809,0.00202c0.00202,0.00202 0.00405,0.00202 0.00405,0.00202l0.00202,0.00202l0.00202,0.00202c0.00405,0 0.00405,0.00405 0.00607,0.00202c0,0 0.00202,0 0.00405,0.00202l0.00202,0.00202l0.00202,0.00202h0.00202l0.00202,0.00202l0.00405,0.00202c0,0 0,0.00405 0.00405,0.00202c0,0 0,0.00202 0.00202,0.00202h0.00202l0.00202,0.00202c0.00202,0 0.00607,0 0.00405,0.00202l0.00405,0.00405h0.00202l0.00202,0.00202l0.00202,0.00202h0.00202c0.00202,0 0.00405,0.00202 0.00607,0.00202c0.00202,0 0.00405,0.00202 0.00405,0.00202c0.45129,0.2044 0.76496,0.65771 0.77711,1.17376zM209.14744,166.14704v0.02024c-0.00202,0.35213 -0.14368,0.66985 -0.37034,0.9046c-0.00202,0.00202 -0.00202,0.00202 -0.00202,0.00202l-0.00202,0.00202c-0.00202,0.00202 -0.00202,0.00202 -0.00202,0.00202c-0.00202,0.00202 0.00202,0.00202 -0.00405,0.00405l-0.00202,0.00202l-0.00202,0.00202l-0.00202,0.00202l-0.00202,0.00202l-0.00202,0.00202l-0.00202,0.00202c-0.00202,0.00405 -0.00405,0.00405 -0.00607,0.00607c0,0.00202 -0.00607,0.00607 -0.01012,0.01012l-0.00202,0.00202c-0.2307,0.22058 -0.54236,0.3582 -0.88639,0.36427h-37.42254c-0.05262,0 -0.10523,-0.00202 -0.15785,-0.00809c-4.81442,-0.11738 -8.60281,-3.96648 -8.62912,-8.67972l-0.00405,-37.63908h-5.20702c-0.57474,0 -1.08066,-0.37236 -1.25268,-0.92079c-0.16999,-0.54843 0.0344,-1.14542 0.50795,-1.47124l25.24787,-17.42419c0.44927,-0.30963 1.04424,-0.30963 1.49148,0l25.0536,17.29062c0.4776,0.1963 0.81353,0.6658 0.81353,1.21423c0,0.73461 -0.59902,1.29315 -1.33768,1.31137h-5.23333v37.61885c0.02024,3.34318 2.76237,6.07115 6.11162,6.07115c0.00202,0 0.03036,0 0.03036,0c0.00202,0 0.00202,0 0.00405,0.00202h0.01821c0.13357,0.00607 0.26106,0.03238 0.38046,0.07488h0.00202c0,0 0.00202,0.00202 0.00405,0.00202c0,0 0,0.00202 0.00202,0.00202c-0.00202,0.00202 -0.00202,0.00202 0.00405,0.00202c-0.00202,0 -0.00202,0 0.00405,0.00202l0.00405,0.00202c0.00202,0.00202 0.00405,0.00202 0.00405,0.00202l0.00405,0.00202c0.00202,0 0.00607,0.00202 0.00809,0.00202c0.00202,0 0.00607,0 0.00809,0.00202c0,0.00202 0.00202,0.00202 0.00202,0.00202c0.00202,0 0.00607,0 0.00405,0.00202l0.00202,0.00202c0.00386,0 0.00404,0.00369 0.00581,0.00226c0.00023,0.00025 0.00123,0.00075 0.00431,0.00178l0.00202,0.00202l0.00202,0.00202h0.00202l0.00202,0.00202c0.00202,0 0.00607,0 0.00405,0.00202c0.00202,0 0.00202,0.00405 0.00405,0.00202l0.00202,0.00202h0.00202c0,0.00202 0.00202,0.00202 0.00202,0.00202l0.00405,0.00405h0.00202c0,0.00202 0,0.00202 0.00202,0.00202l0.00405,0.00405h0.00202c0.00202,0 0.00405,0.00202 0.00607,0.00202l0.00405,0.00202c0.44926,0.2044 0.76496,0.65771 0.77306,1.17376zM208.32379,164.94293c-0.00009,0.00009 -0.00018,0.00017 -0.00026,0.00024c-0.00022,-0.00024 0.00026,-0.00024 0.00026,-0.00024z" id="strokeMainSVG" fill="#ebf9f8" stroke="#ebf9f8" stroke-width="20" stroke-linejoin="round"></path><g transform="translate(0,44.26068)" stroke="none" stroke-width="1" stroke-linejoin="miter"><g><path d="M218.62145,161.61894c-3.26062,0 -6.2963,-2.07516 -7.36628,-5.34393c-1.3314,-4.06925 0.8876,-8.44856 4.95881,-9.77998c14.74877,-4.82717 24.27731,-17.75433 24.27731,-32.93499c0,-19.22558 -15.64042,-34.86828 -34.86571,-34.86828c-1.33545,0 -2.77223,0.10538 -4.52109,0.33235l-7.58109,0.98286l-1.08822,-7.56905c-4.65889,-32.45673 -32.93244,-56.93302 -65.7676,-56.93302c-27.14479,0 -51.31065,16.25066 -61.55859,41.40178l-1.92922,4.73192l-5.10675,0.09322c-23.46874,0.43165 -42.5623,19.86799 -42.5623,43.32495c0,17.12408 9.94194,32.74044 25.32703,39.78259c3.89288,1.78334 5.60526,6.38353 3.82195,10.27648c-1.78331,3.89294 -6.38141,5.6013 -10.27429,3.82404c-20.88903,-9.56112 -34.38543,-30.70987 -34.38543,-53.88311c0,-30.1546 23.23367,-55.41516 52.7454,-58.51776c13.59773,-28.43206 42.09621,-46.53901 73.92016,-46.53901c38.08985,0 71.20062,26.70547 79.78684,63.19497c27.39608,0.44381 49.5476,22.86724 49.5476,50.3671c0,21.66957 -14.05166,40.82625 -34.96298,47.66981c-0.80046,0.26142 -1.61511,0.38707 -2.41557,0.38707z" fill="#16bbce"></path><path d="M100.01656,164.97328c-0.00202,-0.00202 -0.00202,-0.00202 -0.00405,-0.00202c-0.00202,0 -0.00405,-0.00202 -0.00607,-0.00202h-0.00202l-0.00202,-0.00202l-0.00202,-0.00202c0,0 -0.00202,0 -0.00202,-0.00202h-0.00202l-0.00202,-0.00202c0.00202,-0.00202 -0.00202,-0.00202 -0.00202,-0.00202l-0.00202,-0.00202h-0.00202l-0.00202,-0.00202c0.00202,0.00202 -0.00202,-0.00202 -0.00202,-0.00202c0,0 -0.00405,-0.00202 -0.00607,-0.00202l-0.00202,-0.00202v0l-0.00202,-0.00202l-0.00202,-0.00202c-0.00607,-0.00202 -0.00405,-0.00202 -0.00607,-0.00202c-0.00202,0.00202 -0.00202,-0.00202 -0.00405,-0.00202l-0.00202,-0.00202c0,0 -0.00202,-0.00202 -0.00405,-0.00202l-0.00202,-0.00202c-0.00202,-0.00202 -0.00607,-0.00202 -0.00809,-0.00202c-0.00202,0 -0.00607,-0.00202 -0.00809,-0.00202c-0.00202,-0.00202 -0.00202,-0.00202 -0.00405,-0.00202h-0.00202c-0.00202,-0.00202 -0.00405,-0.00202 -0.00607,-0.00202c-0.00202,-0.00202 -0.00607,-0.00202 -0.00607,-0.00202h-0.00202l-0.00405,-0.00202c-0.00202,0 -0.00202,-0.00202 -0.00202,-0.00202h-0.00202c-0.1194,-0.0425 -0.24689,-0.06881 -0.38046,-0.07488h-0.00405h-0.00405h-0.00405c0,0 0,0 -0.00202,0h-0.00202h-0.00202l-0.00202,-0.00202h-0.00405h-0.00405h-0.00202h-0.00202h-0.00202h-0.00405h-0.00202h0.00202h-0.00202h-0.00202h-0.00202h-0.00202h-0.00202h-0.00202h-0.00202h-0.00202c-3.35127,0 -6.09341,-2.72797 -6.11364,-6.07115v-68.1304h5.19488h0.02631c0.79532,0.0344 1.33768,-0.57676 1.33768,-1.31137c0,-0.54843 -0.33594,-1.01793 -0.81353,-1.21423l-25.05157,-17.29062c-0.44926,-0.30963 -1.04221,-0.30963 -1.49148,0l-25.24787,17.42621c-0.47355,0.32582 -0.67794,0.92281 -0.50795,1.47124c0.17202,0.54843 0.67794,0.92079 1.25268,0.92079h5.22119l0.00405,68.14659c0.02631,4.71121 3.81066,8.55627 8.62508,8.67769c0.05464,0.00607 0.10726,0.01012 0.1619,0.01012h37.40028h0.02226c0.34403,-0.00607 0.65568,-0.14368 0.88639,-0.36427c0,0 0,0 0.00202,-0.00202c0.00405,-0.00405 0.00809,-0.00809 0.01012,-0.01012c0.00202,-0.00202 0.00405,-0.00202 0.00607,-0.00607l0.00202,-0.00202l0.00202,-0.00202l0.00202,-0.00202l0.00202,-0.00202l0.00202,-0.00202l0.00202,-0.00202c0.00405,-0.00202 0.00202,-0.00202 0.00405,-0.00405c0,0 0,0 0.00202,-0.00202l0.00202,-0.00202c0,0 0,0 0.00202,-0.00202c0.22666,-0.23475 0.36832,-0.55247 0.37034,-0.9046v-0.00405v-0.00202v-0.00202v-0.00202v-0.00202v-0.00202v-0.00202v-0.00405c-0.01012,-0.51807 -0.32379,-0.97138 -0.77508,-1.17578z" fill="#40ded9"></path><path d="M154.12464,164.97328c0,0 -0.00202,-0.00202 -0.00405,-0.00202c-0.00202,0 -0.00405,-0.00202 -0.00607,-0.00202h-0.00202l-0.00202,-0.00202l-0.00202,-0.00202h-0.00202l-0.00202,-0.00202l-0.00202,-0.00202c0.00202,-0.00202 -0.00202,-0.00202 -0.00405,-0.00202l-0.00202,-0.00202h-0.00202c-0.00202,0 -0.00202,-0.00202 -0.00202,-0.00202c-0.00405,0.00202 -0.00405,-0.00202 -0.00405,-0.00202l-0.00405,-0.00202l-0.00202,-0.00202h-0.00202l-0.00202,-0.00202l-0.00202,-0.00202c-0.00202,-0.00202 -0.00405,-0.00202 -0.00405,-0.00202c-0.00202,0.00202 -0.00202,-0.00202 -0.00607,-0.00202l-0.00202,-0.00202l-0.00202,-0.00202c0,0 -0.00202,0 -0.00405,-0.00202c-0.00202,-0.00202 -0.00607,-0.00202 -0.00809,-0.00202c-0.00202,0 -0.00607,-0.00202 -0.00809,-0.00202c-0.00202,-0.00202 -0.00202,-0.00202 -0.00405,-0.00202c-0.00202,0 -0.00202,0 -0.00405,-0.00202c0,0 -0.00202,0 -0.00405,-0.00202c-0.00607,-0.00202 -0.00202,-0.00202 -0.00405,-0.00202c-0.00607,0 -0.00202,0 -0.00405,-0.00202c0,0 -0.00202,-0.00202 -0.00405,-0.00202l-0.00202,-0.00202h-0.00202c-0.1194,-0.0425 -0.24689,-0.06881 -0.38046,-0.07488h-0.00405h-0.00202h-0.00405h-0.00202h-0.00202h-0.00202l-0.00202,-0.00202h-0.00405h-0.00405h-0.00202h-0.00202h-0.00202h-0.00405h-0.00405h-0.00202h-0.00202h-0.00202h-0.00202h-0.00202h-0.00202h-0.00202h-0.00202h-0.00202c-3.34925,0 -6.09138,-2.72797 -6.11162,-6.07115v-52.86957h5.21916c0.01821,-0.00202 0.03238,-0.00202 0.05262,0c0.72449,0 1.31137,-0.58688 1.31137,-1.31137c0,-0.54843 -0.33594,-1.01793 -0.81353,-1.21423l-25.0536,-17.29062c-0.44927,-0.30963 -1.04221,-0.30963 -1.49148,0l-25.23775,17.42419c-0.47355,0.32582 -0.67794,0.92282 -0.50795,1.47124c0.17202,0.54843 0.67794,0.92079 1.25268,0.92079h5.1969l0.00405,52.8898c0.02226,4.71323 3.81268,8.56032 8.62912,8.67972c0.05262,0.00607 0.10523,0.00809 0.15785,0.00809h37.40028h0.02226c0.34403,-0.00607 0.65568,-0.14368 0.88639,-0.36427c0,0 0,0 0.00202,-0.00202c0.00405,-0.00405 0.01214,-0.00809 0.01012,-0.01012c0.00202,-0.00202 0.00405,-0.00202 0.00607,-0.00607l0.00202,-0.00202l0.00202,-0.00202l0.00202,-0.00202c0,0 0.00202,0 0.00202,-0.00202l0.00202,-0.00202c0.00202,0 0.00202,-0.00202 0.00202,-0.00202c0.00607,-0.00202 0.00405,-0.00202 0.00405,-0.00405c0,0 0,0 0.00202,-0.00202c0,0 0,0 0.00202,-0.00202c0,0 0,0 0.00202,-0.00202c0.22666,-0.23475 0.36832,-0.55248 0.37034,-0.9046v-0.00405v-0.00202v-0.00202v-0.00202v-0.00202v-0.00202v-0.00202v-0.00405c-0.01214,-0.51605 -0.32582,-0.96936 -0.77711,-1.17376z" fill="#40e0e0"></path><path d="M208.37438,164.97328l-0.00405,-0.00202c-0.00202,0 -0.00405,-0.00202 -0.00607,-0.00202h-0.00202l-0.00202,-0.00202l-0.00202,-0.00202c-0.00202,0 -0.00202,0 -0.00202,-0.00202h-0.00202l-0.00202,-0.00202l-0.00202,-0.00202c0,0 -0.00202,0 -0.00202,-0.00202h-0.00202l-0.00202,-0.00202c-0.00202,0.00202 -0.00202,-0.00202 -0.00405,-0.00202c0.00202,-0.00202 -0.00202,-0.00202 -0.00405,-0.00202l-0.00202,-0.00202h-0.00202l-0.00202,-0.00202l-0.00202,-0.00202c-0.00607,-0.00202 -0.00405,-0.00202 -0.00405,-0.00202c-0.00202,0.00202 -0.00202,-0.00202 -0.00607,-0.00202l-0.00202,-0.00202c0.00202,-0.00202 -0.00202,-0.00202 -0.00405,-0.00202c0,0 -0.00202,0 -0.00202,-0.00202c-0.00202,-0.00202 -0.00607,-0.00202 -0.00809,-0.00202c-0.00202,0 -0.00607,-0.00202 -0.00809,-0.00202l-0.00405,-0.00202c0,0 -0.00202,0 -0.00405,-0.00202l-0.00405,-0.00202c-0.00607,-0.00202 -0.00607,-0.00202 -0.00405,-0.00202c-0.00607,0 -0.00607,0 -0.00405,-0.00202c-0.00202,0 -0.00202,-0.00202 -0.00202,-0.00202c-0.00202,0 -0.00405,-0.00202 -0.00405,-0.00202h-0.00202c-0.1194,-0.0425 -0.24689,-0.06881 -0.38046,-0.07488h-0.00202h-0.00405h-0.00607h-0.00202h-0.00202h-0.00202c-0.00202,-0.00202 -0.00202,-0.00202 -0.00405,-0.00202h-0.00405h-0.00405h-0.00202h-0.00202h-0.00202h-0.00405h-0.00405c0,0 0,0 -0.00202,0h-0.00202h-0.00202h-0.00202h-0.00202h-0.00202h-0.00202h0.00809h-0.00202c-3.34925,0 -6.09138,-2.72797 -6.11162,-6.07115v-37.61885h5.20702h0.02631c0.73866,-0.01821 1.33768,-0.57676 1.33768,-1.31137c0,-0.54843 -0.33594,-1.01793 -0.81353,-1.21423l-25.0536,-17.29062c-0.44724,-0.30963 -1.04221,-0.30963 -1.49148,0l-25.24787,17.42419c-0.47355,0.32582 -0.67794,0.92281 -0.50795,1.47124c0.17202,0.54843 0.67794,0.92079 1.25268,0.92079h5.20702l0.00405,37.63908c0.02631,4.71323 3.8147,8.56234 8.62912,8.67972c0.05262,0.00607 0.10523,0.00809 0.15785,0.00809h37.40028h0.02226c0.34403,-0.00607 0.65568,-0.14368 0.88639,-0.36427l0.00202,-0.00202c0.00405,-0.00405 0.01012,-0.00809 0.01012,-0.01012c0.00202,-0.00202 0.00405,-0.00202 0.00607,-0.00607l0.00202,-0.00202l0.00202,-0.00202l0.00202,-0.00202l0.00202,-0.00202l0.00202,-0.00202l0.00202,-0.00202c0.00607,-0.00202 0.00202,-0.00202 0.00405,-0.00405c0,0 0,0 0.00202,-0.00202l0.00202,-0.00202c0,0 0,0 0.00202,-0.00202c0.22666,-0.23475 0.36832,-0.55248 0.37034,-0.9046v-0.00405v-0.00202v-0.00202v-0.00202v-0.00202v-0.00202v-0.00202v-0.00405c-0.00809,-0.51605 -0.32379,-0.96936 -0.77306,-1.17376z" fill="#2be9e9"></path></g></g></g></g></svg>