<svg version="1.1" xmlns="http://www.w3.org/2000/svg" xmlns:xlink="http://www.w3.org/1999/xlink" width="800px" height="800px" viewBox="0,0,256,256"><g fill="#ffffff" fill-rule="nonzero" stroke="none" stroke-width="1" stroke-linecap="butt" stroke-linejoin="miter" stroke-miterlimit="10" stroke-dasharray="" stroke-dashoffset="0" font-family="none" font-weight="none" font-size="none" text-anchor="none" style="mix-blend-mode: normal"><path d="M0,256v-256h256v256z" id="bgRectangle"></path></g><g fill="#37c3bf" fill-rule="nonzero" stroke="none" stroke-width="1" stroke-linecap="butt" stroke-linejoin="miter" stroke-miterlimit="10" stroke-dasharray="" stroke-dashoffset="0" font-family="none" font-weight="none" font-size="none" text-anchor="none" style="mix-blend-mode: normal"><g transform="translate(0,0.15783) scale(2.43578,2.43578)"><path d="M62.1,50l4.5,-4.5c3.25801,1.28631 6.89547,1.21428 10.1,-0.2c0.30246,-0.13301 0.53965,-0.38079 0.65931,-0.68877c0.11967,-0.30798 0.112,-0.6509 -0.02131,-0.95323c-0.05746,-0.13251 -0.13805,-0.25373 -0.238,-0.358l-8,-8c-0.46418,-0.44182 -0.73381,-1.04996 -0.74956,-1.6906c-0.01575,-0.64064 0.22366,-1.2613 0.66556,-1.7254c0.027,-0.028 0.055,-0.057 0.084,-0.084l8,-8c0.28381,-0.29234 0.40561,-0.70561 0.3257,-1.10514c-0.07991,-0.39953 -0.35128,-0.73417 -0.7257,-0.89486c-4.76226,-2.1724 -10.36416,-1.2628 -14.19439,2.30479c-3.83024,3.56759 -5.13481,9.09088 -3.30561,13.99521l-4.6,4.6z"></path><path d="M53.5,43.7l-6.2,-6.2l-7.4,7.4l6.2,6.2l7.4,7.4l22.8,22.8c0.65722,0.66274 1.72726,0.66722 2.39,0.01l0.01,-0.01l5.1,-5.1c0.66273,-0.61249 0.70347,-1.64625 0.091,-2.309c-0.029,-0.032 -0.059,-0.062 -0.091,-0.091l-22.9,-22.6z"></path><path d="M80.5,27.8l-6.7,6.7c-0.49992,0.53468 -0.49992,1.36532 0,1.9l5.1,5.1c0.24747,0.25361 0.58562,0.39844 0.93994,0.40256c0.35432,0.00413 0.69575,-0.13278 0.94906,-0.38056c0.03984,-0.03799 0.07693,-0.07876 0.111,-0.122c2.96512,-3.74663 3.61907,-8.82434 1.7,-13.2c-0.18396,-0.37871 -0.53602,-0.64826 -0.94961,-0.72704c-0.41359,-0.07878 -0.84009,0.04247 -1.15039,0.32704z"></path><path d="M29.4,59.4l8,8c0.46418,0.44182 0.73381,1.04996 0.74956,1.6906c0.01575,0.64064 -0.22366,1.2613 -0.66556,1.7254c-0.027,0.028 -0.055,0.057 -0.084,0.084l-8,8c-0.28381,0.29234 -0.40561,0.70561 -0.3257,1.10514c0.07991,0.39953 0.35128,0.73417 0.7257,0.89486c4.74183,2.17123 10.32418,1.27767 14.15135,-2.2652c3.82718,-3.54287 5.14813,-9.03979 3.34865,-13.9348l5,-5l-7.4,-7.4l-4.9,4.9c-3.29238,-1.28643 -6.96058,-1.2145 -10.2,0.2c-0.30246,0.13301 -0.53965,0.38079 -0.65931,0.68877c-0.11967,0.30798 -0.112,0.6509 0.02131,0.95323c0.05746,0.13251 0.13805,0.25373 0.238,0.358z"></path><path d="M25.6,61.3c-2.96512,3.74663 -3.61907,8.82434 -1.7,13.2c0.17251,0.41809 0.5458,0.71975 0.99079,0.80065c0.44499,0.08091 0.90057,-0.07005 1.20921,-0.40065l6.7,-6.7c0.49992,-0.53468 0.49992,-1.36532 0,-1.9l-5.1,-5.1c-0.27554,-0.26605 -0.6455,-0.41172 -1.02846,-0.40497c-0.38296,0.00675 -0.74755,0.16538 -1.01354,0.44097c-0.02,0.021 -0.039,0.042 -0.058,0.064z"></path><path d="M27.3,39h0.5l-0.5,-0.5z"></path><path d="M31.9,46l1.5,-1.5l-5.5,-5.5h-0.5c-0.01556,-0.17282 0.01916,-0.34646 0.1,-0.5l-1.1,-1.1l-1.5,1.5l-0.9,-0.8c-0.80113,-0.80005 -2.09887,-0.80005 -2.9,0l-0.4,0.4c-0.80005,0.80113 -0.80005,2.09887 0,2.9l8.7,8.7c0.80113,0.80005 2.09887,0.80005 2.9,0l0.4,-0.4c0.80005,-0.80113 0.80005,-2.09887 0,-2.9z"></path><path d="M40.4,23.7l7,7c8.1,-5.4 12.6,-0.9 6.4,-7.1c-4.3,-4.3 -9.7,-2.3 -13.4,0.1z"></path><path d="M46.9,32.6l-0.8,-0.8l-7.1,-7.2l-0.8,-0.8c-0.35352,-0.37133 -0.84008,-0.587 -1.35262,-0.59957c-0.51255,-0.01257 -1.00909,0.17901 -1.38038,0.53257c-0.023,0.022 -0.045,0.044 -0.067,0.067l-8.7,8.7c-0.80005,0.80113 -0.80005,2.09887 0,2.9l0.6,0.6v0l0.1,0.1l0.7,0.7c1.6,-2.4 4.7,-4.8 2.3,-7.1c2.4,2.4 -0.7,4.8 -2.3,7.1l2.1,2.1v0l4.4,4.4l0.8,0.8c0.3678,0.37896 0.87193,0.59501 1.4,0.6h0.4c0.29329,-0.07165 0.5667,-0.20836 0.8,-0.4c0.1,-0.1 0.2,-0.1 0.2,-0.2l0.4,-0.4l7.4,-7.4l0.6,-0.6l0.3,-0.3c0.12349,-0.11398 0.22515,-0.24954 0.3,-0.4c0.511,-0.76323 0.38315,-1.78604 -0.3,-2.4z"></path><path d="M52.5,0.3c-0.52828,-0.01998 -1.02588,0.24796 -1.3,0.7l-2.7,4.4l-1.3,0.1l-3.5,-3.8c-0.58757,-0.60011 -1.55019,-0.61085 -2.151,-0.024c-0.15111,0.14882 -0.26992,0.3272 -0.349,0.524l-1.8,4.8l-1.2,0.4l-4.2,-3c-0.44181,-0.2532 -0.97618,-0.28681 -1.44623,-0.09095c-0.47005,0.19586 -0.82246,0.59895 -0.95377,1.09095l-0.8,5.1l-1.2,0.5l-4.7,-2.1c-0.4682,-0.18905 -0.99955,-0.13459 -1.41967,0.14549c-0.42012,0.28008 -0.67475,0.74962 -0.68033,1.25451l0.2,5.2l-1,0.8l-5,-1.2c-0.49932,-0.08842 -1.01036,0.07251 -1.36893,0.43107c-0.35857,0.35857 -0.51949,0.86961 -0.43107,1.36893l1.2,5l-0.8,1l-5.2,-0.2c-0.84976,0.0229 -1.52071,0.72918 -1.5,1.579c0.00264,0.17818 0.03648,0.35451 0.1,0.521l2.1,4.7l-0.6,1.1l-5.1,0.8c-0.41653,0.10328 -0.77497,0.36781 -0.99646,0.73539c-0.22148,0.36758 -0.28787,0.80809 -0.18454,1.22461c0.03807,0.15487 0.09908,0.30317 0.181,0.44l3,4.2l-0.4,1.4l-4.8,1.8c-0.47444,0.19423 -0.82007,0.61317 -0.92061,1.11588c-0.10054,0.5027 0.05737,1.02235 0.42061,1.38412l3.8,3.5l-0.1,1.3l-4.4,2.7c-0.34481,0.24238 -0.5792,0.61183 -0.6516,1.02705c-0.07239,0.41522 0.02315,0.84219 0.2656,1.18695c0.10519,0.15018 0.23582,0.28081 0.386,0.386l4.4,2.7l0.1,1.3l-3.8,3.5c-0.60011,0.58757 -0.61085,1.55019 -0.024,2.151c0.14882,0.15111 0.3272,0.26992 0.524,0.349l4.8,1.9l0.4,1.2l-3,4.2c-0.22007,0.3685 -0.2847,0.80934 -0.17968,1.22551c0.10503,0.41616 0.3711,0.77355 0.73968,0.99349c0.13683,0.08192 0.28513,0.14293 0.44,0.181l5.1,0.8l0.6,1.1l-2.1,4.7c-0.18905,0.4682 -0.13459,0.99955 0.14549,1.41967c0.28008,0.42012 0.74962,0.67475 1.25451,0.68033l5.2,-0.2l0.8,1l-1.2,5c-0.08842,0.49932 0.07251,1.01036 0.43107,1.36893c0.35857,0.35857 0.86961,0.51949 1.36893,0.43107l5,-1.2l1,0.8l-0.2,5.2c0.0229,0.84976 0.72918,1.52071 1.579,1.5c0.17818,-0.00264 0.35451,-0.03648 0.521,-0.1l4.7,-2.1l1.1,0.6l0.8,5.1c0.10328,0.41653 0.36781,0.77497 0.73539,0.99646c0.36758,0.22148 0.80809,0.28787 1.22461,0.18454c0.15487,-0.03807 0.30317,-0.09908 0.44,-0.181l4.2,-3l1.2,0.4l1.8,4.8c0.19423,0.47444 0.61317,0.82007 1.11588,0.92061c0.5027,0.10054 1.02235,-0.05737 1.38412,-0.42061l3.5,-3.8l1.3,0.1l2.7,4.4c0.24238,0.34481 0.61183,0.5792 1.02705,0.6516c0.41522,0.07239 0.84219,-0.02315 1.18695,-0.2656c0.15018,-0.10519 0.28081,-0.23582 0.386,-0.386l2.7,-4.4l1.3,-0.1l3.5,3.8c0.58757,0.60011 1.55019,0.61085 2.151,0.024c0.15111,-0.14882 0.26992,-0.3272 0.349,-0.524l1.8,-4.8l1.2,-0.4l4.2,3c0.44181,0.2532 0.97618,0.28681 1.44623,0.09095c0.47005,-0.19586 0.82246,-0.59895 0.95377,-1.09095l0.8,-5.1l1.1,-0.6l4.7,2.1c0.4682,0.18905 0.99955,0.13459 1.41967,-0.14549c0.42012,-0.28008 0.67475,-0.74962 0.68033,-1.25451l-0.2,-5.2l1,-0.8l5,1.2c0.49932,0.08842 1.01036,-0.07251 1.36893,-0.43107c0.35857,-0.35857 0.51949,-0.86961 0.43107,-1.36893l-1.2,-5l0.8,-1l5.2,0.2c0.84976,-0.0229 1.52071,-0.72918 1.5,-1.579c-0.00264,-0.17818 -0.03648,-0.35451 -0.1,-0.521l-1.8,-4.7l0.6,-1.1l5.1,-0.8c0.41653,-0.10328 0.77497,-0.36781 0.99646,-0.73539c0.22148,-0.36758 0.28787,-0.80809 0.18454,-1.22461c-0.03807,-0.15487 -0.09908,-0.30317 -0.181,-0.44l-3,-4.2l0.4,-1.2l4.8,-1.8c0.47444,-0.19423 0.82007,-0.61317 0.92061,-1.11588c0.10054,-0.5027 -0.05737,-1.02235 -0.42061,-1.38412l-3.8,-3.5l0.1,-1.3l4.4,-2.7c0.34481,-0.24238 0.5792,-0.61183 0.6516,-1.02705c0.07239,-0.41522 -0.02315,-0.84219 -0.2656,-1.18695c-0.10519,-0.15018 -0.23582,-0.28081 -0.386,-0.386l-4.4,-2.7l-0.1,-1.3l3.8,-3.5c0.60011,-0.58757 0.61085,-1.55019 0.024,-2.151c-0.14882,-0.15111 -0.3272,-0.26992 -0.524,-0.349l-4.8,-1.8l-0.4,-1.2l3,-4.2c0.2532,-0.44181 0.28681,-0.97618 0.09095,-1.44623c-0.19586,-0.47005 -0.59895,-0.82246 -1.09095,-0.95377l-5.1,-0.8l-0.6,-1.3l2.1,-4.7c0.18905,-0.4682 0.13459,-0.99955 -0.14549,-1.41967c-0.28008,-0.42012 -0.74962,-0.67475 -1.25451,-0.68033l-5.1,0.2l-0.8,-1l1.2,-5c0.08842,-0.49932 -0.07251,-1.01036 -0.43107,-1.36893c-0.35857,-0.35857 -0.86961,-0.51949 -1.36893,-0.43107l-5,1.2l-1,-0.8l0.2,-5.2c-0.0229,-0.84976 -0.72918,-1.52071 -1.579,-1.5c-0.17818,0.00264 -0.35451,0.03648 -0.521,0.1l-4.8,2l-1.1,-0.6l-0.8,-5.1c-0.10328,-0.41653 -0.36781,-0.77497 -0.73539,-0.99646c-0.36758,-0.22148 -0.80809,-0.28787 -1.22461,-0.18454c-0.15487,0.03807 -0.30317,0.09908 -0.44,0.181l-4.2,3l-1.3,-0.3l-1.8,-4.8c-0.19423,-0.47444 -0.61317,-0.82007 -1.11588,-0.92061c-0.5027,-0.10054 -1.02235,0.05737 -1.38412,0.42061l-3.5,3.8l-1.3,-0.1l-2.7,-4.4c-0.3005,-0.47518 -0.83956,-0.74471 -1.4,-0.7zM52.5,9.5v0c1.67338,0.01758 3.0161,1.3876 3,3.061v0.039c0,4.1 -6.2,4.1 -6.2,0c-0.04538,-1.66492 1.26615,-3.05207 2.931,-3.1c0.09,-0.007 0.18,-0.005 0.269,0zM59.6,14.6c11.04569,2.1068 20.61764,8.93869 26.2,18.7l-3.7,8.3c-0.6183,1.4088 0.00397,3.05338 1.4,3.7l7.1,3.1c0.2,2.2 0,6.6 0,6.6c-0.56491,7.19312 -3.12788,14.08544 -7.4,19.9c-1.06206,1.42424 -2.1969,2.79272 -3.4,4.1l-6.6,-1.4c-1.54249,-0.31044 -3.05114,0.66575 -3.4,2.2l-1.6,7.3c-10.15401,4.58705 -21.80431,4.51401 -31.9,-0.2l-1.6,-7.3c-0.33889,-1.5412 -1.85527,-2.52239 -3.4,-2.2l-6.4,1.4c-1.2,-1.2 -3.3,-3.9 -3.3,-3.9c-2.72577,-3.66765 -4.7591,-7.80209 -6,-12.2c0,0 -0.4,-1.5 -0.6,-2.2c-0.1,-0.3 -0.1,-0.6 -0.2,-0.9c-0.18222,-0.85844 -0.31577,-1.72649 -0.4,-2.6c-0.1,-0.4 -0.1,-0.8 -0.2,-1.3c-0.1,-0.7 -0.2,-3.1 -0.2,-3.5v-1.3c0,-0.5 0.1,-1 0.1,-1.5c0,-0.4 0.1,-0.9 0.1,-1.3l6.7,-3c0.68427,-0.30392 1.21978,-0.86723 1.48871,-1.566c0.26893,-0.69877 0.24925,-1.47575 -0.05471,-2.16c-0.011,-0.025 -0.022,-0.049 -0.034,-0.074l-3.4,-7.7c1.36725,-2.47784 3.01108,-4.79263 4.9,-6.9c0,0 0.9,-1 1.2,-1.3c0.6,-0.6 1.2,-1.2 1.9,-1.8l0.2,-0.2v0c5.10679,-4.48767 11.32198,-7.52621 18,-8.8l4.8,5c1.07929,1.12692 2.86575,1.17158 4,0.1zM15.4,37.6v0c0.56982,0.0124 1.12451,0.18574 1.6,0.5v0c1.16134,0.76344 1.67416,2.20544 1.25565,3.53073c-0.41851,1.32529 -1.66648,2.21125 -3.05565,2.16927v0c-1.67291,-0.05399 -3.00087,-1.42622 -3,-3.1c0.00975,-0.83218 0.34979,-1.62637 0.94526,-2.20778c0.59547,-0.5814 1.39757,-0.90236 2.22974,-0.89222zM89.5,37.7v0c1.67338,0.01758 3.0161,1.3876 3,3.061v0.039c0,4.1 -6.2,4.1 -6.2,0c0.05403,-1.72814 1.47102,-3.10084 3.2,-3.1zM29.4,81.4v0c1.67338,0.01758 3.0161,1.3876 3,3.061v0.039c0,4.1 -6.2,4.1 -6.2,0c0.05403,-1.72814 1.47102,-3.10084 3.2,-3.1zM75.5,81.5v0c1.67338,0.01758 3.0161,1.3876 3,3.061v0.039c0,4.1 -6.2,4.1 -6.2,0c0.00975,-0.83218 0.34979,-1.62637 0.94526,-2.20778c0.59547,-0.5814 1.39757,-0.90236 2.22974,-0.89222z"></path></g></g></svg>