<svg version="1.1" xmlns="http://www.w3.org/2000/svg" xmlns:xlink="http://www.w3.org/1999/xlink" width="800px" height="800px" viewBox="0,0,256,256"><g fill="#ffffff" fill-rule="nonzero" stroke="none" stroke-width="1" stroke-linecap="butt" stroke-linejoin="miter" stroke-miterlimit="10" stroke-dasharray="" stroke-dashoffset="0" font-family="none" font-weight="none" font-size="none" text-anchor="none" style="mix-blend-mode: normal"><path d="M0,256v-256h256v256z" id="bgRectangle"></path></g><g fill="#16bbce" fill-rule="nonzero" stroke="none" stroke-width="1" stroke-linecap="butt" stroke-linejoin="miter" stroke-miterlimit="10" stroke-dasharray="" stroke-dashoffset="0" font-family="none" font-weight="none" font-size="none" text-anchor="none" style="mix-blend-mode: normal"><g transform="translate(0.01108,0) scale(10.66667,10.66667)"><path d="M16.934,8.519c0.11423,0.05746 0.21694,0.13542 0.303,0.23l2.349,-1.045l-2.192,-2.171l-0.491,2.954zM12.06,6.546c0.1141,0.1721 0.18573,0.36883 0.209,0.574l3.497,1.482c0.10593,-0.08115 0.22644,-0.14123 0.355,-0.177l0.574,-3.55l-2.13,-2.234l-2.505,3.852zM23.993,12.037l-3.748,-3.748l-2.548,1.044l6.264,2.662c0,0 0.053,0.042 0.032,0.042zM23.366,12.643l-6.013,-2.569c-0.16908,0.22431 -0.42141,0.37103 -0.7,0.407l-0.647,3.957c0.19301,0.19447 0.30184,0.45701 0.303,0.731l3.633,0.762l3.33,-3.31v-0.062zM15.4,9.25l-3.268,-1.39c-0.22927,0.35092 -0.62505,0.55677 -1.044,0.543h-0.199l-2.704,4.177l7.225,-3.132v0.01c-0.00525,-0.05554 -0.00525,-0.11146 0,-0.167c0.00261,-0.01447 -0.00102,-0.02936 -0.01,-0.041zM19.367,16.558l-3.195,-0.658c-0.12002,0.15352 -0.27881,0.27227 -0.46,0.344l-0.761,4.72l4.437,-4.396c0,0 -0.01,0.02 -0.021,0.02zM14.898,16.234c-0.30629,-0.12562 -0.53485,-0.38905 -0.616,-0.71l-5.95,-1.222l-0.084,0.136l5.398,7.81l0.323,-0.324l0.919,-5.67c0,0 0.031,0.022 0.01,0.011zM8.457,13.582l5.878,1.211c0.1715,-0.2995 0.47994,-0.4949 0.824,-0.522l0.637,-3.894l-0.135,-0.115l-7.308,3.132c0.03834,0.06056 0.07307,0.12334 0.104,0.188zM5.993,14.563l-0.125,-0.125l-2.537,1.044l1.232,1.222l1.399,-2.172zM7.663,14.96c-0.17665,0.0812 -0.36858,0.12381 -0.563,0.125c-0.153,0.00062 -0.30504,-0.02405 -0.45,-0.073l-1.544,2.245l6.765,6.702l1.19,-1.18zM6.713,12.319c0.10444,-0.00968 0.20956,-0.00968 0.314,0c0.11422,-0.01437 0.22978,-0.01437 0.344,0l2.735,-4.25c-0.21362,-0.2212 -0.33331,-0.5165 -0.334,-0.824c-0.00988,-0.09006 -0.00988,-0.18094 0,-0.271l-3.32,-1.535l-2.672,2.6zM7.016,4.917l3.237,1.378c0.2345,-0.19291 0.53155,-0.29323 0.835,-0.282c0.13473,0.00118 0.26853,0.02241 0.397,0.063l2.526,-3.947l-2.088,-2.088l-4.907,4.813c0,0 -0.01,0.052 0,0.063zM5.806,13.081c0.06497,-0.1214 0.14566,-0.2337 0.24,-0.334l-2.768,-4.134l-3.278,3.184l5.804,1.284zM5.544,13.781l-5.011,-1.046l2.203,2.235l2.777,-1.18z"></path></g></g></svg>