<svg version="1.1" xmlns="http://www.w3.org/2000/svg" xmlns:xlink="http://www.w3.org/1999/xlink" width="800px" height="800px" viewBox="0,0,256,256"><g transform="translate(-25.6,-25.6) scale(1.2,1.2)"><g fill="#ffffff" fill-rule="nonzero" stroke="none" stroke-width="1" stroke-linecap="butt" stroke-linejoin="miter" stroke-miterlimit="10" stroke-dasharray="" stroke-dashoffset="0" font-family="none" font-weight="none" font-size="none" text-anchor="none" style="mix-blend-mode: normal"><path d="M21.33333,234.66667v-213.33333h213.33333v213.33333z" id="bgRectangle"></path></g><g fill="#37c3bf" fill-rule="nonzero" stroke="none" stroke-width="1" stroke-linecap="butt" stroke-linejoin="miter" stroke-miterlimit="10" stroke-dasharray="" stroke-dashoffset="0" font-family="none" font-weight="none" font-size="none" text-anchor="none" style="mix-blend-mode: normal"><g transform="translate(-0.03699,0.12774) scale(0.256,0.256)"><path d="M775.34,847.27h-550.4c19.45,-29.13 50.22,-48.76 84.83,-54.12c54.9,-8.48 133.39,-24.9 140.16,-50.05c1.91,-7.11 1.49,-14.37 -0.5,-21.49h101.43c-1.99,7.12 -2.43,14.38 -0.51,21.49c6.77,25.15 85.26,41.57 140.17,50.05c34.61,5.36 65.37,24.99 84.82,54.12z"></path><path d="M232.832,181.732v72.8h534.624v-72.8c0,-16.5 -13.5,-30 -30,-30h-474.624c-16.5,0 -30,13.5 -30,30zM674.936,203.132c0,-6.875 5.625,-12.5 12.5,-12.5h28c6.875,0 12.5,5.625 12.5,12.5c0,6.875 -5.625,12.5 -12.5,12.5h-28c-6.875,0 -12.5,-5.625 -12.5,-12.5zM591.436,203.132c0,-6.875 5.625,-12.5 12.5,-12.5h28c6.875,0 12.5,5.625 12.5,12.5c0,6.875 -5.625,12.5 -12.5,12.5h-28c-6.875,0 -12.5,-5.625 -12.5,-12.5zM507.936,203.132c0,-6.875 5.625,-12.5 12.5,-12.5h28c6.875,0 12.5,5.625 12.5,12.5c0,6.875 -5.625,12.5 -12.5,12.5h-28c-6.875,0 -12.5,-5.625 -12.5,-12.5z"></path><path d="M817.912,210.63h-25.457v43.901c0,0.046 0,0.091 0,0.137c-0.044,8.244 -0.044,16.483 0,24.727c0,0.046 0,0.091 0,0.137v310.58c0,30.376 -24.624,55 -55,55h-474.623c-30.376,0 -55,-24.624 -55,-55v-310.58c0,-0.046 0,-0.092 0,-0.137c0.045,-8.244 0.045,-16.482 0,-24.725c0,-0.046 0,-0.092 0,-0.137v-43.903h-25.456c-16.568,0 -30,13.431 -30,30v425.976c0,16.568 13.432,30 30,30h635.537c16.568,0 30,-13.432 30,-30v-425.976c-0.001,-16.568 -13.433,-30 -30.001,-30z"></path><g><path d="M619.503,466.613h-15.807v25.705h15.807c3.623,0 6.666,-1.228 9.138,-3.684c2.471,-2.456 3.706,-5.538 3.706,-9.25c0,-3.492 -1.235,-6.493 -3.706,-9.005c-2.472,-2.509 -5.516,-3.766 -9.138,-3.766z"></path><path d="M232.83,279.53v310.58c0,16.54 13.46,30 30,30h474.63c16.54,0 30,-13.46 30,-30c0,0 0,-310.57 0,-310.58zM277.579,338.096h28c6.875,0 12.5,5.625 12.5,12.5c0,6.875 -5.625,12.5 -12.5,12.5h-28c-6.875,0 -12.5,-5.625 -12.5,-12.5c0,-6.875 5.625,-12.5 12.5,-12.5zM328.608,535.387c4.881,4.881 4.881,12.796 0,17.678c-4.882,4.881 -12.796,4.881 -17.678,0l-42.191,-42.191c-4.881,-4.881 -4.881,-12.796 0,-17.678l42.191,-42.19c4.881,-4.882 12.796,-4.882 17.678,0c4.881,4.881 4.881,12.796 0,17.678l-33.352,33.352zM453.403,520.56c-2.84,6.605 -6.713,12.361 -11.624,17.272c-4.912,4.912 -10.67,8.76 -17.273,11.543c-6.605,2.783 -13.671,4.175 -21.202,4.175c-7.531,0 -14.628,-1.392 -21.284,-4.175c-6.659,-2.783 -12.443,-6.603 -17.354,-11.461c-4.912,-4.855 -8.815,-10.56 -11.707,-17.109c-2.893,-6.549 -4.338,-13.589 -4.338,-21.12c0,-7.311 1.364,-14.27 4.093,-20.874c2.727,-6.603 6.521,-12.414 11.379,-17.436c4.856,-5.02 10.56,-9.005 17.109,-11.952c6.549,-2.947 13.643,-4.421 21.284,-4.421c7.859,0 15.145,1.448 21.857,4.339c6.713,2.893 12.551,6.795 17.518,11.706c4.966,4.912 8.841,10.67 11.624,17.273c2.783,6.605 4.175,13.617 4.175,21.039c-0.001,7.531 -1.42,14.599 -4.257,21.201zM570.626,520.56c-2.84,6.605 -6.713,12.361 -11.624,17.272c-4.912,4.912 -10.67,8.76 -17.273,11.543c-6.605,2.783 -13.67,4.175 -21.202,4.175c-7.531,0 -14.628,-1.392 -21.284,-4.175c-6.659,-2.783 -12.443,-6.603 -17.355,-11.461c-4.912,-4.855 -8.815,-10.56 -11.707,-17.109c-2.893,-6.549 -4.338,-13.589 -4.338,-21.12c0,-7.311 1.364,-14.27 4.093,-20.874c2.727,-6.603 6.521,-12.414 11.379,-17.436c4.856,-5.02 10.56,-9.005 17.109,-11.952c6.549,-2.947 13.643,-4.421 21.284,-4.421c7.859,0 15.145,1.448 21.857,4.339c6.713,2.893 12.551,6.795 17.518,11.706c4.966,4.912 8.841,10.67 11.625,17.273c2.783,6.605 4.175,13.617 4.175,21.039c0,7.531 -1.42,14.599 -4.257,21.201zM649.119,492.072c-1.698,3.876 -4.024,7.286 -6.981,10.233c-2.957,2.947 -6.408,5.268 -10.35,6.958c-3.943,1.694 -8.104,2.538 -12.484,2.538h-15.607v29.634c0,6.549 -3.193,9.824 -9.578,9.824c-6.495,0 -9.742,-3.274 -9.742,-9.824v-82.68c0,-7.639 3.873,-11.461 11.624,-11.461h23.413c4.364,0 8.513,0.847 12.443,2.538c3.93,1.693 7.368,4.011 10.315,6.958c2.947,2.947 5.265,6.385 6.958,10.314c1.691,3.93 2.537,8.079 2.537,12.443c0,4.477 -0.849,8.652 -2.548,12.525zM731.547,510.874l-42.191,42.191c-4.881,4.881 -12.796,4.881 -17.677,0c-4.882,-4.882 -4.882,-12.796 0,-17.678l33.352,-33.352l-33.352,-33.352c-4.882,-4.882 -4.882,-12.796 0,-17.678c4.881,-4.882 12.796,-4.882 17.677,0l42.191,42.19c4.881,4.883 4.881,12.797 0,17.679zM722.708,363.096h-363.129c-6.875,0 -12.5,-5.625 -12.5,-12.5c0,-6.875 5.625,-12.5 12.5,-12.5h363.129c6.875,0 12.5,5.625 12.5,12.5c0,6.875 -5.625,12.5 -12.5,12.5z"></path><path d="M544.758,474.636c-3.167,-3.165 -6.876,-5.674 -11.133,-7.531c-4.257,-1.854 -8.734,-2.783 -13.425,-2.783c-4.912,0 -9.47,0.957 -13.671,2.865c-4.203,1.911 -7.833,4.477 -10.888,7.695c-3.057,3.221 -5.459,6.986 -7.204,11.297c-1.747,4.313 -2.62,8.816 -2.62,13.507c0,4.804 0.872,9.278 2.62,13.425c1.745,4.15 4.175,7.805 7.286,10.969c3.11,3.168 6.738,5.648 10.887,7.45c4.147,1.801 8.677,2.701 13.589,2.701c4.912,0 9.468,-0.9 13.671,-2.701c4.201,-1.801 7.884,-4.282 11.051,-7.45c3.165,-3.165 5.648,-6.876 7.449,-11.133c1.801,-4.257 2.701,-8.785 2.701,-13.589c0,-4.802 -0.929,-9.332 -2.783,-13.589c-1.856,-4.257 -4.365,-7.966 -7.53,-11.133z"></path><path d="M427.534,474.636c-3.167,-3.165 -6.876,-5.674 -11.133,-7.531c-4.257,-1.854 -8.734,-2.783 -13.425,-2.783c-4.912,0 -9.47,0.957 -13.671,2.865c-4.203,1.911 -7.833,4.477 -10.888,7.695c-3.057,3.221 -5.459,6.986 -7.204,11.297c-1.747,4.313 -2.62,8.816 -2.62,13.507c0,4.804 0.872,9.278 2.62,13.425c1.745,4.15 4.175,7.805 7.286,10.969c3.111,3.168 6.738,5.648 10.887,7.45c4.147,1.801 8.678,2.701 13.589,2.701c4.912,0 9.468,-0.9 13.671,-2.701c4.2,-1.801 7.884,-4.282 11.051,-7.45c3.165,-3.165 5.648,-6.876 7.449,-11.133c1.801,-4.257 2.701,-8.785 2.701,-13.589c0,-4.802 -0.929,-9.332 -2.784,-13.589c-1.855,-4.257 -4.364,-7.966 -7.529,-11.133z"></path></g></g></g></g></svg>