<svg version="1.1" xmlns="http://www.w3.org/2000/svg" xmlns:xlink="http://www.w3.org/1999/xlink" width="800px" height="800px" viewBox="0,0,256,256"><g transform="translate(25.6,25.6) scale(0.8,0.8)"><g fill="#ffffff" fill-rule="nonzero" stroke="none" stroke-width="1" stroke-linecap="butt" stroke-linejoin="miter" stroke-miterlimit="10" stroke-dasharray="" stroke-dashoffset="0" font-family="none" font-weight="none" font-size="none" text-anchor="none" style="mix-blend-mode: normal"><path d="M-32,288v-320h320v320z" id="bgRectangle"></path></g><g fill="none" fill-rule="nonzero" stroke="none" stroke-width="none" stroke-linecap="butt" stroke-linejoin="none" stroke-miterlimit="10" stroke-dasharray="" stroke-dashoffset="0" font-family="none" font-weight="none" font-size="none" text-anchor="none" style="mix-blend-mode: normal"><path transform="translate(-0.00025,0) scale(0.5,0.5)" d="M321.381,0.5v386.751c-42.869,8.138 -74.343,11.392 -108.508,11.392c-102.005,0 -155.181,-46.115 -155.181,-134.556c0,-85.18 56.432,-140.52 143.781,-140.52c13.568,0 23.871,1.085 36.354,4.338v-127.405zM454.309,0.949v85.726h-83.557v-85.726zM370.752,129.532h83.557v193.699c0,66.735 -4.889,98.743 -19.537,126.417c-13.56,26.59 -31.466,43.403 -68.365,61.852l-77.589,-36.896c36.889,-17.359 54.81,-32.542 66.197,-55.883c11.934,-23.874 15.737,-51.544 15.737,-124.252z" id="strokeMainSVG" fill="#37c3bf" stroke="#37c3bf" stroke-width="40" stroke-linejoin="round"></path><g transform="translate(-0.00025,0) scale(0.5,0.5)" fill="#ebf9f8" stroke="none" stroke-width="1" stroke-linejoin="miter"><g id="5151e0c8492e5103c096af88a51f62ed"><path d="M321.38,0.5h-83.553v127.405c-12.483,-3.253 -22.786,-4.338 -36.354,-4.338c-87.349,0 -143.781,55.34 -143.781,140.52c0,88.441 53.176,134.556 155.181,134.556c34.165,0 65.639,-3.254 108.508,-11.392v-386.751zM237.827,329.203c-11.938,1.623 -19.533,2.162 -28.755,2.162c-42.865,0 -66.197,-24.409 -66.197,-68.904c0,-45.573 24.413,-71.616 66.743,-71.616c10.303,0 18.437,1.084 28.209,4.338zM454.309,0.949v85.726h-83.557v-85.726zM370.752,129.532h83.557v193.699c0,66.735 -4.889,98.743 -19.537,126.417c-13.56,26.59 -31.466,43.403 -68.365,61.852l-77.589,-36.896c36.889,-17.359 54.81,-32.542 66.197,-55.883c11.934,-23.874 15.737,-51.544 15.737,-124.252z"></path></g></g></g></g></svg>