<svg version="1.1" xmlns="http://www.w3.org/2000/svg" xmlns:xlink="http://www.w3.org/1999/xlink" width="800px" height="800px" viewBox="0,0,256,256"><g fill="#ffffff" fill-rule="nonzero" stroke="none" stroke-width="1" stroke-linecap="butt" stroke-linejoin="miter" stroke-miterlimit="10" stroke-dasharray="" stroke-dashoffset="0" font-family="none" font-weight="none" font-size="none" text-anchor="none" style="mix-blend-mode: normal"><path d="M0,256v-256h256v256z" id="bgRectangle"></path></g><g fill="#37c3bf" fill-rule="nonzero" stroke="none" stroke-width="1" stroke-linecap="butt" stroke-linejoin="miter" stroke-miterlimit="10" stroke-dasharray="" stroke-dashoffset="0" font-family="none" font-weight="none" font-size="none" text-anchor="none" style="mix-blend-mode: normal"><g transform="scale(5.33333,5.33333)"><g><path d="M36.772,11.429c0,-6.992 -5.78,-11.429 -12.772,-11.429c-6.992,0 -12.773,4.437 -12.773,11.429v2.151h25.545zM19.294,11.429c-1.614,0 -2.958,-1.344 -2.958,-2.958c0,-1.613 1.344,-2.958 2.958,-2.958c1.613,0 2.958,1.345 2.958,2.958c0,1.613 -1.21,2.958 -2.958,2.958zM28.707,11.429c-1.615,0 -2.959,-1.344 -2.959,-2.958c0,-1.613 1.344,-2.958 2.959,-2.958c1.612,0 2.957,1.345 2.957,2.958c0,1.613 -1.345,2.958 -2.957,2.958zM3.025,18.285h3.092v11.295h-3.092zM7.328,29.714c0,4.304 1.613,7.8 4.302,10.354v7.932h8.471v-3.766c1.21,0.269 2.554,0.404 3.899,0.404c1.344,0 2.688,-0.137 3.898,-0.404v3.766h8.471v-7.799c2.689,-2.555 4.303,-6.051 4.303,-10.354v-14.25h-33.344zM28.303,32.768l7.125,-3.228l-7.125,-3.228v-2.15l9.277,4.438v1.883l-9.276,4.437v-2.152zM25.21,22.146h1.881l-4.167,14.654h-1.882zM10.42,28.6l9.278,-4.572v2.285l-6.992,3.229l6.992,3.227v2.151l-9.278,-4.571zM44.975,18.285v11.295h-3.093v-11.295z"></path></g></g></g></svg>